<?xml version="1.0" encoding="utf-8"?>
<!-- Generator: Adobe Illustrator 24.0.1, SVG Export Plug-In . SVG Version: 6.00 Build 0)  -->
<svg version="1.1" id="Layer_1" xmlns="http://www.w3.org/2000/svg" xmlns:xlink="http://www.w3.org/1999/xlink" x="0px" y="0px"
	 viewBox="0 0 569 447.2" style="enable-background:new 0 0 569 447.2;" xml:space="preserve">
<style type="text/css">
	.st0{clip-path:url(#SVGID_2_);}
	.st1{fill:none;stroke:#D1FAE5;stroke-width:1.2961;stroke-miterlimit:10;}
	.st2{fill:none;stroke:#CCF9E3;stroke-width:1.2961;stroke-linecap:round;stroke-linejoin:round;stroke-miterlimit:10;}
	.st3{fill:none;stroke:#C8F8E1;stroke-width:1.2961;stroke-linecap:round;stroke-linejoin:round;stroke-miterlimit:10;}
	.st4{fill:none;stroke:#C3F7DE;stroke-width:1.2961;stroke-linecap:round;stroke-linejoin:round;stroke-miterlimit:10;}
	.st5{fill:none;stroke:#BEF6DC;stroke-width:1.2961;stroke-linecap:round;stroke-linejoin:round;stroke-miterlimit:10;}
	.st6{fill:none;stroke:#B9F5DA;stroke-width:1.2961;stroke-linecap:round;stroke-linejoin:round;stroke-miterlimit:10;}
	.st7{fill:none;stroke:#B5F5D8;stroke-width:1.2961;stroke-linecap:round;stroke-linejoin:round;stroke-miterlimit:10;}
	.st8{fill:none;stroke:#B0F4D6;stroke-width:1.2961;stroke-linecap:round;stroke-linejoin:round;stroke-miterlimit:10;}
	.st9{fill:none;stroke:#ABF3D3;stroke-width:1.2961;stroke-linecap:round;stroke-linejoin:round;stroke-miterlimit:10;}
	.st10{fill:none;stroke:#A7F2D1;stroke-width:1.2961;stroke-linecap:round;stroke-linejoin:round;stroke-miterlimit:10;}
	.st11{fill:none;stroke:#A2F1CF;stroke-width:1.2961;stroke-linecap:round;stroke-linejoin:round;stroke-miterlimit:10;}
	.st12{fill:none;stroke:#9DF0CD;stroke-width:1.2961;stroke-linecap:round;stroke-linejoin:round;stroke-miterlimit:10;}
	.st13{fill:none;stroke:#98EFCB;stroke-width:1.2961;stroke-linecap:round;stroke-linejoin:round;stroke-miterlimit:10;}
	.st14{fill:none;stroke:#94EEC9;stroke-width:1.2961;stroke-linecap:round;stroke-linejoin:round;stroke-miterlimit:10;}
	.st15{fill:none;stroke:#8FEDC6;stroke-width:1.2961;stroke-linecap:round;stroke-linejoin:round;stroke-miterlimit:10;}
	.st16{fill:none;stroke:#8AECC4;stroke-width:1.2961;stroke-linecap:round;stroke-linejoin:round;stroke-miterlimit:10;}
	.st17{fill:none;stroke:#86ECC2;stroke-width:1.2961;stroke-linecap:round;stroke-linejoin:round;stroke-miterlimit:10;}
	.st18{fill:none;stroke:#81EBC0;stroke-width:1.2961;stroke-linecap:round;stroke-linejoin:round;stroke-miterlimit:10;}
	.st19{fill:none;stroke:#7CEABE;stroke-width:1.2961;stroke-linecap:round;stroke-linejoin:round;stroke-miterlimit:10;}
	.st20{fill:none;stroke:#77E9BB;stroke-width:1.2961;stroke-linecap:round;stroke-linejoin:round;stroke-miterlimit:10;}
	.st21{fill:none;stroke:#73E8B9;stroke-width:1.2961;stroke-linecap:round;stroke-linejoin:round;stroke-miterlimit:10;}
	.st22{fill:none;stroke:#6EE7B7;stroke-width:1.2961;stroke-linecap:round;stroke-linejoin:round;stroke-miterlimit:10;}
	.st23{fill:none;stroke:#73E8B9;stroke-width:1.2961;stroke-miterlimit:10;}
	.st24{fill:none;stroke:#77E9BB;stroke-width:1.2961;stroke-miterlimit:10;}
	.st25{fill:none;stroke:#7CEABE;stroke-width:1.2961;stroke-miterlimit:10;}
	.st26{fill:none;stroke:#81EBC0;stroke-width:1.2961;stroke-miterlimit:10;}
	.st27{fill:none;stroke:#86ECC2;stroke-width:1.2961;stroke-miterlimit:10;}
	.st28{fill:none;stroke:#8AECC4;stroke-width:1.2961;stroke-miterlimit:10;}
	.st29{fill:none;stroke:#8FEDC6;stroke-width:1.2961;stroke-miterlimit:10;}
	.st30{fill:none;stroke:#94EEC9;stroke-width:1.2961;stroke-miterlimit:10;}
	.st31{fill:none;stroke:#98EFCB;stroke-width:1.2961;stroke-miterlimit:10;}
	.st32{fill:none;stroke:#9DF0CD;stroke-width:1.2961;stroke-miterlimit:10;}
	.st33{fill:none;stroke:#A2F1CF;stroke-width:1.2961;stroke-miterlimit:10;}
	.st34{fill:none;stroke:#A7F2D1;stroke-width:1.2961;stroke-miterlimit:10;}
	.st35{fill:none;stroke:#ABF3D3;stroke-width:1.2961;stroke-miterlimit:10;}
	.st36{fill:none;stroke:#B0F4D6;stroke-width:1.2961;stroke-miterlimit:10;}
	.st37{fill:none;stroke:#B5F5D8;stroke-width:1.2961;stroke-miterlimit:10;}
	.st38{fill:none;stroke:#B9F5DA;stroke-width:1.2961;stroke-miterlimit:10;}
	.st39{fill:none;stroke:#BEF6DC;stroke-width:1.2961;stroke-miterlimit:10;}
	.st40{fill:none;stroke:#C3F7DE;stroke-width:1.2961;stroke-miterlimit:10;}
	.st41{fill:none;stroke:#C8F8E1;stroke-width:1.2961;stroke-miterlimit:10;}
	.st42{fill:none;stroke:#CCF9E3;stroke-width:1.2961;stroke-miterlimit:10;}
</style>
<g>
	<g>
		<defs>
			<rect id="SVGID_1_" width="569" height="447.2"/>
		</defs>
		<clipPath id="SVGID_2_">
			<use xlink:href="#SVGID_1_"  style="overflow:visible;"/>
		</clipPath>
		<g class="st0">
			<g>
				<path class="st1" d="M553.1-67.8c-7.8,33.5-17.7,66.5-29.4,98.9c-5.2,14.4-11,28.9-21.1,40.4c-25.8,29.4-71,30.3-109.6,23.9
					c-35.5-5.9-70.4-16-103.5-30.1c-32.8-14-64.6-31.9-99.8-37.9c-35.2-5.9-76.1,3.6-95.1,33.8c-11.3,18-13.1,40.8-8.7,61.5
					s14.5,39.9,25.7,57.9c12.8,20.6,27.8,41.5,29.7,65.8c2,25.1-11.9,50.7-33.9,62.8c-31.4,17.2-69.9,6.4-105.1,0
					c-44.7-8.2-92.7-8.1-133.6,11.9c-40.9,19.9-72.5,63.3-68.3,108.6"/>
				<path class="st2" d="M545.2-74.6c-7.6,32.8-17.3,65-28.9,96.6c-5.1,14-10.9,28.2-20.7,39.4c-25.1,28.8-68.9,30.4-106.4,24.9
					c-8.9-1.3-17.7-2.9-26.5-4.7c-25.4-5.3-50.4-12.9-74.4-22.6c-32-13-63.2-29.7-97.6-35.2c-34.4-5.4-74.2,3.8-93.2,32.6
					c-11.9,17.2-14.8,38.9-11.8,58.7c1,6.5,2.6,12.9,4.6,19.2c4.1,12.7,10,24.9,16.5,36.8c6.2,11.5,13.3,23.2,18.4,35.8
					c3.9,9.5,6.9,19.4,7.5,30c1.7,25.2-11.4,51-32.2,63.9C71,318.9,34.4,310.7,0.5,306.5c-20.9-2.6-42.7-3.4-64.4-1.3
					c-23.2,2.2-46.2,7.7-67.2,18.5c-4.9,2.5-9.6,5.3-14.2,8.5c-33.3,22.9-56.1,62.1-51.2,101.8"/>
				<path class="st3" d="M537.2-81.4c-7.4,32-17,63.5-28.4,94.3c-5.1,13.7-10.7,27.5-20.3,38.5c-24.5,28.2-66.7,30.4-103.2,25.8
					c-8.6-1.1-17.2-2.4-25.8-4c-24.7-4.7-49-11.5-72.5-20.4c-31.3-11.9-61.8-27.6-95.4-32.6c-33.6-4.9-72.4,3.9-91.3,31.3
					c-12.5,16.4-16.5,37-14.8,55.8c0.6,6.2,1.7,12.4,3.2,18.4c3.1,12.2,7.9,24,13.3,35.7c5.2,11.3,11.3,23,15.8,35.5
					c3.4,9.5,6,19.5,6.5,30.1c1.3,25.3-10.9,51.3-30.4,64.9C66,311.5,31.3,305.8-1.4,303.8c-20.1-1.2-41.4-0.8-62.8,2.2
					c-22.9,3.1-46,9.1-66.8,20.3c-4.9,2.6-9.6,5.5-14.1,8.8c-33,23.7-54.5,63.7-48.4,103.1"/>
				<path class="st4" d="M529.3-88.1c-7.2,31.3-16.6,62-27.9,92c-5,13.3-10.6,26.7-19.9,37.5c-23.8,27.6-64.6,30.5-100,26.8
					c-8.4-0.9-16.7-2-25-3.4c-24-4-47.7-10.1-70.6-18.3c-30.5-10.9-60.4-25.4-93.1-29.9c-32.8-4.5-70.5,4.1-89.4,30.1
					c-13.2,15.6-18.2,35-17.9,53c0.1,5.9,0.7,11.8,1.8,17.6c2.1,11.7,5.8,23.2,10.2,34.6c4.2,11.1,9.3,22.7,13.1,35.3
					c2.9,9.6,5.1,19.6,5.5,30.3c1,25.4-10.4,51.6-28.7,66C61,304,28.3,301-3.2,301.1c-19.4,0.2-40,1.7-61.3,5.6
					c-22.6,4-45.7,10.5-66.4,22.1c-4.8,2.7-9.5,5.7-14,9.1c-32.6,24.4-52.9,65.2-45.6,104.4"/>
				<path class="st5" d="M521.3-94.9c-7,30.5-16.2,60.5-27.4,89.7c-4.9,13-10.5,26-19.5,36.6c-23.2,27-62.5,30.5-96.8,27.8
					c-8.1-0.7-16.2-1.6-24.3-2.7c-23.3-3.3-46.4-8.7-68.7-16.1c-29.8-9.9-58.9-23.2-90.9-27.3c-32-4-68.6,4.2-87.5,28.9
					C92.4,56.8,86.3,75,85.2,92.1c-0.3,5.6-0.2,11.2,0.4,16.7c1.1,11.2,3.7,22.3,7.1,33.5c3.2,10.9,7.3,22.4,10.4,35.1
					c2.4,9.6,4.2,19.7,4.5,30.5c0.6,25.5-9.8,51.9-27,67.1C56,296.6,25.2,296.1-5.1,298.4c-18.6,1.5-38.7,4.3-59.7,9.1
					c-22.3,4.9-45.4,11.8-66,23.9c-4.8,2.8-9.5,5.9-13.9,9.4c-32.3,25.2-51.3,66.7-42.8,105.8"/>
				<path class="st6" d="M513.4-101.7c-6.8,29.8-15.9,59-26.9,87.4c-4.9,12.6-10.3,25.3-19.1,35.6c-22.5,26.4-60.4,30.6-93.6,28.7
					c-7.9-0.4-15.7-1.1-23.5-2c-22.7-2.7-45.1-7.3-66.9-13.9c-29-8.8-57.5-21.1-88.7-24.6C163.5,6,127.9,13.8,109,37.1
					C94.6,51.2,87.4,68.3,85,84.5c-0.8,5.3-1.1,10.6-1.1,15.9c0.1,10.7,1.6,21.4,3.9,32.4c2.2,10.7,5.3,22.2,7.7,34.9
					c1.8,9.7,3.4,19.8,3.4,30.6c0.3,25.6-9.3,52.2-25.3,68.1C51,289.1,22.1,291.2-6.9,295.6c-17.9,2.9-37.4,6.9-58.1,12.5
					c-22,5.9-45.1,13.2-65.6,25.7c-4.8,2.9-9.4,6.1-13.8,9.7c-31.9,25.9-49.7,68.3-40,107.1"/>
				<path class="st7" d="M505.5-108.5c-6.6,29-15.5,57.4-26.3,85.1c-4.8,12.3-10.2,24.6-18.7,34.7C438.6,37.1,402.2,42,370,41
					c-7.6-0.2-15.2-0.7-22.8-1.4c-22-2-43.8-6-65-11.8c-28.3-7.8-56.1-18.9-86.5-22c-30.3-3-64.9,4.5-83.8,26.4
					c-15,13.3-23.3,29.3-27.1,44.5c-1.2,5-2,10-2.5,15.1c-0.9,10.2-0.5,20.5,0.8,31.3c1.1,10.5,3.3,21.9,5,34.7
					c1.3,9.7,2.5,19.9,2.4,30.8c-0.1,25.7-8.8,52.5-23.5,69.2c-21,23.8-48,28.5-75.7,35.1c-17.1,4.3-36,9.5-56.6,16
					c-21.8,6.8-44.9,14.6-65.2,27.5c-4.8,3-9.3,6.4-13.7,10c-31.6,26.6-48.1,69.8-37.2,108.4"/>
				<path class="st8" d="M497.5-115.2c-6.4,28.3-15.1,55.9-25.8,82.8c-4.7,11.9-10,23.9-18.3,33.7C432.2,26.5,397.2,32,366.1,32
					c-7.4,0-14.7-0.3-22.1-0.7c-21.3-1.3-42.4-4.6-63.1-9.6c-27.5-6.8-54.7-16.7-84.3-19.3c-29.5-2.5-63,4.7-81.9,25.2
					c-15.6,12.5-25,27.3-30.1,41.7c-1.7,4.7-3,9.5-3.9,14.2c-1.9,9.7-2.6,19.7-2.4,30.2c0.1,10.3,1.3,21.6,2.3,34.5
					c0.8,9.7,1.6,20,1.4,30.9c-0.4,25.8-8.3,52.9-21.8,70.3c-19.3,24.9-44.3,32.2-70.8,40.9c-16.4,5.7-34.7,12.1-55,19.4
					c-21.5,7.7-44.6,16-64.8,29.3c-4.7,3.1-9.3,6.6-13.6,10.3c-31.2,27.4-46.5,71.3-34.4,109.8"/>
				<path class="st9" d="M489.6-122c-6.2,27.5-14.8,54.4-25.3,80.5c-4.7,11.6-9.9,23.2-17.9,32.8c-20.5,24.5-54,30.8-84,31.6
					c-7.1,0.2-14.2,0.2-21.3-0.1c-20.6-0.7-41.1-3.2-61.2-7.5c-26.8-5.7-53.3-14.6-82.1-16.7c-28.7-2-61.1,4.8-80,23.9
					C101.4,34.3,91,48.1,84.5,61.5c-2.1,4.4-3.9,8.9-5.3,13.4c-2.9,9.2-4.7,18.8-5.5,29.2c-0.9,10.1-0.7,21.4-0.4,34.3
					c0.2,9.8,0.7,20.1,0.4,31.1c-0.8,25.9-7.8,53.2-20.1,71.3c-17.5,26-40.6,35.8-65.9,46.8c-15.6,7-33.4,14.6-53.4,22.9
					c-21.2,8.6-44.3,17.4-64.4,31.1c-4.7,3.2-9.2,6.8-13.5,10.6c-30.9,28.1-45,72.9-31.6,111.1"/>
				<path class="st10" d="M481.7-128.8c-6,26.8-14.4,52.9-24.8,78.2c-4.6,11.2-9.8,22.4-17.6,31.8c-19.8,23.9-51.9,30.8-80.8,32.6
					c-6.9,0.4-13.7,0.6-20.6,0.6c-19.9,0-39.8-1.8-59.3-5.3c-26-4.7-51.9-12.4-79.8-14c-27.9-1.6-59.3,5-78.1,22.7
					c-16.9,10.9-28.4,23.5-36.3,36c-2.6,4.1-4.8,8.3-6.8,12.6c-3.9,8.6-6.8,17.9-8.7,28.1c-1.9,9.9-2.7,21.1-3.1,34
					c-0.3,9.8-0.2,20.2-0.7,31.2c-1.1,26-7.3,53.5-18.4,72.4c-15.8,27.1-37,39.5-61,52.6c-14.9,8.4-32.1,17.2-51.9,26.3
					c-20.9,9.5-44.1,18.7-64,32.9c-4.7,3.3-9.2,7-13.3,10.9c-30.6,28.8-43.4,74.4-28.8,112.4"/>
				<path class="st11" d="M473.7-135.6c-5.8,26-14,51.4-24.3,75.9c-4.6,10.9-9.6,21.7-17.2,30.9C413.1-5.5,382.5,2.1,354.6,4.8
					c-6.6,0.6-13.2,1.1-19.9,1.3c-19.2,0.6-38.5-0.4-57.5-3.2C252-0.8,226.8-7.3,199.7-8.4c-27.1-1.1-57.4,5.1-76.2,21.5
					C106,23.1,93.4,34.6,84.1,46.2c-3,3.8-5.8,7.7-8.2,11.8c-4.9,8.1-8.9,17-11.8,27c-3,9.7-4.7,20.8-5.8,33.8
					c-0.8,9.8-1,20.3-1.7,31.4c-1.5,26.1-6.8,53.8-16.6,73.5C26,251.9,6.7,266.8-16.1,282.1c-14.1,9.8-30.7,19.8-50.3,29.8
					C-87,322.3-110.2,332-130,346.6c-4.6,3.4-9.1,7.2-13.2,11.2c-30.2,29.6-41.8,75.9-26,113.7"/>
				<path class="st12" d="M465.8-142.3c-5.6,25.3-13.7,49.9-23.8,73.6c-4.5,10.5-9.5,21-16.8,29.9c-18.5,22.7-47.6,30.9-74.5,34.5
					c-6.4,0.8-12.7,1.5-19.1,1.9c-18.5,1.3-37.2,0.9-55.6-1c-24.5-2.6-49-8.1-75.4-8.7c-26.3-0.6-55.5,5.3-74.3,20.2
					C108.2,17.5,94.6,27.8,84,38.6c-3.5,3.5-6.7,7.2-9.6,10.9c-5.9,7.6-11,16.2-15,25.9c-4,9.5-6.7,20.6-8.5,33.6
					c-1.3,9.9-1.9,20.4-2.7,31.6c-1.8,26.2-6.3,54.1-14.9,74.5C21,244.4,3.6,261.9-17.9,279.4c-13.3,11.2-29.4,22.4-48.7,33.3
					c-20.3,11.3-43.5,21.5-63.2,36.5c-4.6,3.5-9,7.4-13.1,11.5c-29.9,30.3-40.2,77.5-23.2,115.1"/>
				<path class="st13" d="M457.8-149.1c-5.4,24.5-13.3,48.4-23.3,71.3c-4.4,10.2-9.4,20.3-16.4,29c-17.9,22.1-45.5,31-71.3,35.5
					c-6.1,1.1-12.2,1.9-18.4,2.6c-17.8,2-35.8,2.3-53.7,1.2c-23.8-1.6-47.6-5.9-73.2-6c-25.5-0.1-53.7,5.4-72.4,19
					c-18.7,8.5-33.5,17.7-45.4,27.5c-3.9,3.2-7.6,6.6-11.1,10.1c-6.9,7.1-13.1,15.3-18.1,24.8c-5,9.3-8.7,20.3-11.2,33.4
					c-1.9,9.9-2.8,20.5-3.7,31.7c-2.2,26.3-5.7,54.4-13.2,75.6c-10.6,30.4-26,50.6-46.3,70.2c-12.6,12.5-28.1,25-47.2,36.7
					c-20,12.2-43.2,22.9-62.8,38.3c-4.6,3.6-9,7.6-13,11.9c-29.5,31.1-38.6,79-20.4,116.4"/>
				<path class="st14" d="M449.9-155.9c-5.2,23.8-12.9,46.9-22.8,69c-4.4,9.8-9.2,19.6-16,28c-17.2,21.5-43.4,31.1-68.1,36.4
					c-5.8,1.3-11.7,2.4-17.7,3.3c-17.2,2.6-34.5,3.7-51.8,3.3c-23-0.5-46.2-3.7-71-3.4c-24.7,0.4-51.8,5.6-70.5,17.7
					c-19.3,7.7-35.2,15.8-48.5,24.7c-4.4,2.9-8.5,6-12.5,9.3c-7.9,6.6-15.2,14.4-21.2,23.7c-6,9.2-10.7,20-13.9,33.2
					c-2.4,10-3.7,20.6-4.8,31.9C28.7,147.7,26,176,19.8,198c-8.9,31.5-22.3,54.2-41.4,76c-11.8,13.9-26.8,27.5-45.6,40.2
					c-19.8,13.1-43,24.2-62.4,40.1c-4.6,3.7-8.9,7.8-12.9,12.2c-29.2,31.8-37,80.5-17.6,117.7"/>
				<path class="st15" d="M442-162.7c-5,23-12.6,45.4-22.3,66.7c-4.3,9.5-9.1,18.9-15.6,27c-16.5,20.9-41.2,31.1-64.9,37.4
					c-5.6,1.5-11.2,2.8-16.9,3.9c-16.5,3.3-33.2,5.1-49.9,5.5c-22.3,0.5-44.8-1.5-68.7-0.7c-23.9,0.8-49.9,5.7-68.7,16.5
					c-20,7-36.9,13.9-51.6,21.9C78.6,18.2,74,21,69.5,24c-8.9,6.1-17.4,13.5-24.4,22.6c-7.1,9-12.7,19.8-16.6,33
					c-2.9,10-4.5,20.7-5.8,32c-2.9,26.5-4.7,55-9.7,77.7C5.9,222-5.6,247.3-23.5,271.3c-11.1,15.3-25.4,30.1-44,43.6
					c-19.5,14-42.7,25.6-62,41.9c-4.5,3.9-8.8,8-12.8,12.5c-28.8,32.5-35.4,82.1-14.8,119.1"/>
				<path class="st16" d="M434-169.4c-4.8,22.3-12.2,43.9-21.8,64.5c-4.2,9.1-9,18.1-15.2,26.1c-15.9,20.3-39.1,31.2-61.7,38.4
					c-5.3,1.7-10.7,3.2-16.2,4.6c-15.8,4-31.9,6.5-48,7.6c-21.5,1.5-43.4,0.6-66.5,1.9c-23.1,1.3-48,5.9-66.8,15.3
					c-20.6,6.2-38.6,12-54.6,19c-5.3,2.3-10.4,4.8-15.3,7.6c-10,5.6-19.5,12.7-27.5,21.5c-8.1,8.8-14.7,19.5-19.2,32.8
					c-3.5,10-5.4,20.8-6.8,32.2c-3.2,26.6-4.2,55.3-8,78.8c-5.4,33.7-15,61.6-31.6,87.7c-10.3,16.7-24.1,32.7-42.5,47.1
					c-19.2,14.9-42.4,27-61.6,43.7c-4.5,4-8.8,8.2-12.7,12.8c-28.5,33.3-33.8,83.6-12,120.4"/>
				<path class="st17" d="M426.1-176.2c-4.6,21.5-11.8,42.4-21.2,62.2c-4.2,8.8-8.8,17.4-14.8,25.1c-15.2,19.7-37,31.2-58.5,39.3
					c-5.1,1.9-10.2,3.7-15.5,5.3c-15.1,4.6-30.6,7.9-46.2,9.8c-20.8,2.6-42,2.8-64.3,4.6c-22.2,1.8-46.2,6-64.9,14
					c-21.2,5.4-40.3,10-57.7,16.2c-5.7,2-11.3,4.3-16.8,6.8c-11,5.1-21.6,11.8-30.7,20.5c-9.1,8.6-16.7,19.2-21.9,32.6
					C9.7,70.2,7.4,81,5.9,92.4c-3.6,26.7-3.7,55.6-6.3,79.9c-3.7,34.8-11.4,65.3-26.7,93.5c-9.6,18.1-22.8,35.3-40.9,50.5
					c-18.9,15.8-42.2,28.4-61.2,45.6c-4.5,4.1-8.7,8.4-12.6,13.1c-28.1,34-32.2,85.1-9.2,121.7"/>
				<path class="st18" d="M418.2-183c-4.4,20.8-11.5,40.9-20.7,59.9c-4.1,8.4-8.7,16.7-14.4,24.2c-14.6,19.1-34.9,31.3-55.3,40.3
					c-4.8,2.1-9.7,4.1-14.7,5.9c-14.4,5.3-29.2,9.2-44.3,11.9c-20,3.6-40.6,5-62.1,7.2c-21.4,2.3-44.3,6.2-63,12.8
					c-21.8,4.6-42,8.1-60.8,13.4c-6.2,1.7-12.3,3.7-18.2,6C52.7,3.2,41,9.5,30.9,18C20.8,26.3,12.2,37,6.3,50.3
					c-4.5,10.1-7.2,21-8.9,32.5c-3.9,26.8-3.2,55.9-4.5,80.9c-1.9,36-7.7,69-21.8,99.4c-8.8,19.4-21.5,37.8-39.3,54
					c-18.6,16.7-41.9,29.7-60.8,47.4c-4.5,4.2-8.7,8.6-12.5,13.4c-27.8,34.7-30.7,86.7-6.4,123.1"/>
				<path class="st19" d="M410.2-189.8c-4.2,20-11.1,39.3-20.2,57.6c-4,8.1-8.5,16-14,23.2c-13.9,18.4-32.7,31.4-52.1,41.3
					c-4.6,2.4-9.3,4.6-14,6.6C296.2-55.2,282-50.5,267.5-47c-19.3,4.6-39.2,7.1-59.9,9.9c-20.6,2.8-42.4,6.3-61.1,11.6
					c-22.4,3.8-43.7,6.2-63.8,10.5c-6.6,1.4-13.2,3.1-19.6,5.1c-13,4.1-25.8,10-37,18.3C15,16.6,5.5,27.1-1.2,40.5
					c-5,10.1-8,21.1-9.9,32.6c-4.3,26.9-2.7,56.2-2.8,82c-0.2,37.1-4.1,72.6-16.9,105.2c-8.1,20.8-20.1,40.4-37.8,57.5
					c-18.3,17.7-41.6,31.1-60.4,49.2c-4.4,4.3-8.6,8.8-12.4,13.7c-27.4,35.5-29.1,88.2-3.6,124.4"/>
				<path class="st20" d="M402.3-196.5c-4,19.3-10.7,37.8-19.7,55.3c-4,7.7-8.4,15.3-13.6,22.3c-13.2,17.8-30.6,31.4-48.9,42.2
					c-4.3,2.6-8.8,5-13.2,7.3c-13,6.6-26.6,12-40.5,16.3c-18.5,5.7-37.7,9.3-57.7,12.6c-19.8,3.3-40.6,6.5-59.2,10.3
					c-23.1,3-45.4,4.3-66.9,7.7c-7.1,1.1-14.1,2.5-21,4.3c-14,3.6-27.9,9.2-40.1,17.2c-12.2,8-22.7,18.4-30,31.9
					c-5.6,10.2-8.9,21.2-10.9,32.8c-4.6,27-2.2,56.6-1.1,83.1c1.5,38.2-0.4,76.3-12,111.1c-7.3,22.2-18.8,43-36.2,60.9
					c-18,18.6-41.4,32.5-60,51c-4.4,4.4-8.5,9-12.3,14c-27.1,36.2-27.5,89.7-0.8,125.7"/>
				<path class="st21" d="M394.3-203.3c-3.8,18.5-10.4,36.3-19.2,53c-3.9,7.4-8.3,14.5-13.2,21.3c-12.6,17.2-28.5,31.5-45.7,43.2
					c-4.1,2.8-8.3,5.4-12.5,7.9c-12.3,7.3-25.3,13.4-38.6,18.4c-17.8,6.7-36.3,11.5-55.4,15.2c-19,3.7-38.7,6.6-57.3,9.1
					c-23.7,2.2-47.1,2.3-69.9,4.9c-7.5,0.8-15,1.9-22.5,3.5c-15,3.1-30,8.3-43.3,16.1C3.4-2.9-8,7.5-16.1,21
					c-6.1,10.2-9.8,21.3-11.9,33c-5,27-1.6,56.9,0.6,84.1c3.3,39.3,3.3,80-7.1,116.9c-6.6,23.6-17.5,45.6-34.6,64.4
					c-17.7,19.5-41.1,33.9-59.6,52.8c-4.4,4.5-8.5,9.2-12.2,14.3c-26.7,37-25.9,91.3,2,127.1"/>
				<path class="st22" d="M386.4-210.1c-10.2,50.5-43.2,94.8-85.8,123.8S206.6-43,155.2-40c-32.3,1.9-64.9-0.5-96.9,4.7
					C26.4-30.2-6-16-23.5,11.2c-22,34-15.6,78.2-10.6,118.3c8.2,66.1,8.1,140.1-35.3,190.6c-21.6,25.2-52.2,42-71.2,69.2
					c-26.4,37.7-24.3,92.8,4.8,128.4"/>
			</g>
			<g>
				<path class="st22" d="M-342.5-79.3c24.9-23.8,51.1-46.1,78.6-66.8c12.2-9.2,25-18.2,39.8-22.3c37.7-10.5,76,13.4,104.9,39.8
					c26.6,24.3,50.2,51.8,70.3,81.7C-29-17.1-12.2,15.3,14,39.5C40.3,63.6,79.8,78,112.1,63.1c19.3-8.9,33.2-27,40.9-46.8
					s9.6-41.3,10.1-62.6c0.5-24.3-0.6-50,11.1-71.3c12-22.1,37.7-36,62.7-34.1c35.7,2.8,62,32.8,88,57.4
					c33,31.3,73.3,57.4,118.4,63.1c45.1,5.6,95.3-13.4,116.5-53.7"/>
				<path class="st23" d="M-339.6-69.3c24.5-23.4,50.3-45.3,77.4-65.4c12-9,24.7-17.7,39.2-21.7c29.2-8.1,58.7,4.1,84,22
					c6.8,4.8,13.4,10.1,19.5,15.5c26.4,23.2,50,49.6,70.2,78.4c20,28.7,37,60,62.9,83.6C38,65,73,79.2,103.7,70.7
					c2.6-0.7,5.2-1.6,7.7-2.7c19.3-8.1,33.6-25.2,41.9-44.1c3.4-7.8,5.9-16,7.7-24.4c2.6-11.9,3.8-24.3,4.5-36.6
					c1.2-23.9,0.7-49.5,12.4-70.8c2-3.7,4.4-7.2,7.1-10.4c13.3-16,34-25.8,54.4-25.1c34.9,1.2,61.1,28.5,87.3,51.1
					c7.8,6.8,16.1,13.3,24.7,19.5c27.1,19.3,57.9,34.6,91,38.7c1.1,0.1,2.2,0.3,3.2,0.4c44.9,4.5,94-15.8,114-56.3"/>
				<path class="st24" d="M-336.6-59.3c24-23,49.5-44.4,76.3-64c11.9-8.7,24.3-17.2,38.6-21.2c28.6-8,57.7,3.5,82.7,20.5
					c6.8,4.6,13.2,9.6,19.3,14.7c26.3,22.1,49.8,47.4,70.1,75.1c20.1,27.6,37.3,57.8,62.9,80.8C37.8,68.3,72.4,82.8,103,75.4
					c2.6-0.6,5.2-1.4,7.7-2.4c19.3-7.3,34-23.3,42.9-41.5c3.7-7.5,6.5-15.3,8.6-23.5c3-11.6,4.7-23.7,5.8-35.9
					c2-23.6,2.1-48.9,13.7-70.3c2-3.7,4.3-7.2,7-10.5c13-16.1,33.2-26.4,53.1-26.6c34.2-0.4,60.3,24.2,86.7,44.9
					c7.9,6.2,16.2,12.2,25,17.9c27.3,17.9,58.3,32.5,91.3,35.8c1.1,0.1,2.1,0.2,3.2,0.3c44.7,3.3,92.7-18.2,111.4-59"/>
				<path class="st25" d="M-333.7-49.3c23.6-22.7,48.7-43.6,75.1-62.6c11.7-8.5,24-16.7,38-20.6c28.1-7.9,56.7,2.9,81.4,18.9
					c6.7,4.3,13.1,9.1,19.2,13.9c26.1,21,49.6,45.2,70,71.8c20.2,26.5,37.6,55.7,62.9,78C37.6,71.6,71.7,86.4,102.3,80
					c2.6-0.5,5.2-1.2,7.7-2.1c19.3-6.5,34.3-21.5,43.8-38.8c3.9-7.1,7-14.7,9.4-22.6c3.5-11.2,5.6-23.1,7-35.1
					c2.7-23.2,3.4-48.4,15-69.8c2-3.7,4.3-7.2,6.9-10.5c12.8-16.2,32.5-26.9,51.9-28c33.4-1.9,59.4,19.9,86,38.6
					c8,5.6,16.4,11.1,25.2,16.3c27.6,16.4,58.7,30.5,91.6,32.9c1.1,0.1,2.1,0.1,3.2,0.2c44.5,2.2,91.4-20.7,108.9-61.6"/>
				<path class="st26" d="M-330.7-39.2c23.1-22.3,47.8-42.7,73.9-61.2c11.6-8.2,23.7-16.2,37.5-20c27.6-7.8,55.7,2.2,80,17.4
					c6.6,4.1,13,8.6,19,13.2c25.9,19.9,49.4,43,69.9,68.5c20.3,25.4,37.9,53.5,62.9,75.2c25,21,58.6,36.1,89.1,30.9
					c2.6-0.5,5.2-1.1,7.7-1.8c19.4-5.8,34.7-19.6,44.8-36.1c4.2-6.8,7.6-14.1,10.3-21.7c3.9-10.9,6.4-22.5,8.3-34.4
					c3.5-22.9,4.8-47.9,16.3-69.3c2-3.7,4.3-7.3,6.8-10.6c12.6-16.4,31.7-27.4,50.7-29.4c32.7-3.5,58.6,15.6,85.4,32.3
					c8,5,16.5,9.9,25.4,14.7c27.8,15,59.2,28.4,91.9,30.1c1.1,0.1,2.1,0.1,3.2,0.1c44.3,1.1,90.1-23.1,106.3-64.2"/>
				<path class="st27" d="M-327.8-29.2c22.7-21.9,47-41.9,72.8-59.8c11.4-8,23.4-15.7,36.9-19.4c27.1-7.6,54.6,1.6,78.7,15.8
					c6.6,3.9,12.9,8.1,18.9,12.4C-94.8-61.5-71.4-39.5-50.8-15c20.4,24.4,38.2,51.3,62.9,72.4c25.2,20.8,58.3,36.1,88.8,31.9
					c2.6-0.4,5.2-0.9,7.7-1.5c19.4-5,35.1-17.8,45.8-33.4c4.5-6.5,8.1-13.4,11.2-20.8c4.4-10.6,7.3-21.9,9.5-33.6
					c4.2-22.5,6.1-47.4,17.6-68.8c2-3.7,4.2-7.3,6.7-10.6c12.4-16.5,31-28,49.5-30.9c31.9-5.1,57.7,11.3,84.7,26.1
					c8.1,4.4,16.7,8.8,25.7,13.1c28,13.6,59.6,26.3,92.3,27.2c1.1,0,2.1,0,3.2,0c44.1,0,88.8-25.5,103.8-66.9"/>
				<path class="st28" d="M-324.8-19.2c22.2-21.5,46.2-41,71.6-58.4c11.3-7.7,23-15.1,36.3-18.9c26.6-7.5,53.6,1,77.4,14.3
					c6.5,3.6,12.8,7.6,18.7,11.7c25.6,17.7,49,38.6,69.6,62C-30.7,14.6-12.7,40.5,11.7,61c25.3,20.5,58.1,36.1,88.5,33
					c2.6-0.3,5.2-0.7,7.7-1.2c19.4-4.2,35.5-15.9,46.8-30.8c4.7-6.1,8.7-12.8,12-19.9c4.8-10.2,8.2-21.4,10.8-32.8
					c4.9-22.2,7.5-46.8,18.9-68.3c2-3.7,4.2-7.3,6.7-10.6c12.2-16.6,30.2-28.5,48.3-32.3c31.2-6.7,56.8,7,84,19.8
					c8.2,3.8,16.8,7.7,25.9,11.5c28.3,12.2,60,24.3,92.6,24.3c1.1,0,2.1,0,3.2,0c43.9-1.2,87.5-27.9,101.2-69.5"/>
				<path class="st29" d="M-321.9-9.2c21.8-21.1,45.4-40.2,70.4-57.1c11.1-7.5,22.7-14.6,35.7-18.3c26-7.4,52.6,0.3,76.1,12.7
					c6.4,3.4,12.6,7.1,18.5,10.9c25.4,16.6,48.8,36.4,69.5,58.7C-31,19.9-12.8,44.7,11.3,64.6c25.5,20.2,57.8,36.1,88.1,34.1
					c2.6-0.2,5.2-0.5,7.7-0.9c19.4-3.4,35.8-14.1,47.8-28.1c5-5.8,9.2-12.1,12.9-19.1c5.3-9.9,9-20.8,12.1-32.1
					c5.7-21.8,8.8-46.3,20.1-67.7c2-3.7,4.2-7.3,6.6-10.7c11.9-16.7,29.4-29,47.1-33.8c30.4-8.2,56,2.8,83.4,13.5
					c8.2,3.2,17,6.5,26.1,9.9c28.5,10.7,60.5,22.2,92.9,21.4c1.1,0,2.1-0.1,3.2-0.1c43.7-2.3,86.2-30.3,98.7-72.1"/>
				<path class="st30" d="M-318.9,0.8c21.3-20.7,44.6-39.3,69.3-55.7c10.9-7.3,22.4-14.1,35.1-17.7c25.5-7.2,51.6-0.3,74.8,11.2
					c6.3,3.1,12.5,6.6,18.4,10.1c25.3,15.5,48.6,34.2,69.4,55.4C-31.3,25.2-12.8,48.9,11,68.2c25.7,19.9,57.5,36.1,87.8,35.1
					c2.6-0.1,5.1-0.3,7.7-0.6c19.4-2.6,36.2-12.2,48.8-25.4c5.2-5.4,9.8-11.5,13.7-18.2c5.7-9.6,9.9-20.2,13.3-31.3
					c6.4-21.5,10.1-45.8,21.4-67.2c2-3.7,4.1-7.3,6.5-10.7C222-67,238.9-79.8,256.1-85.4c29.7-9.8,55.1-1.5,82.7,7.3
					c8.3,2.6,17.1,5.4,26.3,8.3c28.8,9.3,60.9,20.1,93.2,18.5c1.1-0.1,2.1-0.1,3.2-0.2c43.5-3.4,84.9-32.8,96.2-74.7"/>
				<path class="st31" d="M-316,10.8c20.9-20.4,43.8-38.5,68.1-54.3c10.8-7,22-13.6,34.5-17.2c25-7.1,50.5-0.9,73.5,9.6
					c6.3,2.9,12.4,6,18.2,9.4c25.1,14.4,48.4,32,69.3,52.1c20.7,20,39.4,42.6,62.9,61.3c25.9,19.6,57.3,36.1,87.5,36.2
					c2.6,0,5.1-0.1,7.7-0.4c19.4-1.8,36.6-10.4,49.7-22.7c5.5-5.1,10.3-10.9,14.6-17.3c6.2-9.2,10.8-19.6,14.6-30.6
					c7.1-21.1,11.5-45.3,22.7-66.7c1.9-3.7,4.1-7.3,6.4-10.7c11.5-16.9,27.9-30.1,44.7-36.6c28.9-11.4,54.3-5.8,82.1,1
					c8.4,2,17.2,4.3,26.6,6.7c29,7.9,61.4,18.1,93.5,15.6c1-0.1,2.1-0.2,3.1-0.3c43.4-4.5,83.6-35.2,93.6-77.4"/>
				<path class="st32" d="M-313,20.8c20.4-20,43-37.6,66.9-52.9c10.6-6.8,21.7-13.1,33.9-16.6c24.5-7,49.5-1.5,72.2,8.1
					c6.2,2.6,12.3,5.5,18.1,8.6c24.9,13.3,48.2,29.8,69.2,48.8C-31.8,35.8-13,57.3,10.2,75.4c26.1,19.3,57,36,87.2,37.3
					c2.6,0.1,5.1,0.1,7.7-0.1c19.5-1,36.9-8.6,50.7-20.1c5.7-4.8,10.9-10.2,15.4-16.4c6.6-8.9,11.7-19,15.9-29.8
					c7.9-20.8,12.8-44.7,24-66.2c1.9-3.7,4.1-7.3,6.3-10.8c11.3-17,27.2-30.7,43.5-38.1c28.1-13,53.4-10.1,81.4-5.3
					c8.5,1.4,17.4,3.1,26.8,5.2c29.2,6.4,61.8,16,93.9,12.7c1-0.1,2.1-0.2,3.1-0.4c43.2-5.7,82.3-37.6,91.1-80"/>
				<path class="st33" d="M-310.1,30.9c20-19.6,42.1-36.8,65.8-51.5c10.5-6.5,21.4-12.6,33.4-16c24-6.9,48.5-2.1,70.9,6.6
					c6.1,2.4,12.1,5,17.9,7.9C-97.4-10.1-74.2,5.3-53,23.3c20.9,17.8,40,38.2,62.8,55.7c26.3,19,56.8,36,86.9,38.3
					c2.6,0.2,5.1,0.3,7.7,0.2c19.5-0.3,37.3-6.7,51.7-17.4c6-4.4,11.4-9.6,16.3-15.5c7.1-8.5,12.5-18.4,17.1-29.1
					c8.6-20.4,14.2-44.2,25.3-65.7c1.9-3.7,4-7.4,6.3-10.8c11.1-17.1,26.4-31.2,42.2-39.5c27.4-14.6,52.5-14.4,80.7-11.5
					c8.5,0.8,17.5,2,27,3.6c29.5,5,62.2,13.9,94.2,9.9c1-0.1,2.1-0.3,3.1-0.4c43-6.8,81-40,88.5-82.6"/>
				<path class="st34" d="M-307.1,40.9c19.5-19.2,41.3-35.9,64.6-50.1c10.3-6.3,21.1-12.1,32.8-15.5c23.4-6.7,47.5-2.8,69.6,5
					c6.1,2.1,12,4.5,17.8,7.1c24.6,11.1,47.7,25.4,69,42.2c21,16.7,40.3,36,62.8,52.9c26.4,18.7,56.5,36,86.6,39.4
					c2.6,0.3,5.1,0.5,7.7,0.5c19.5,0.5,37.7-4.9,52.7-14.7c6.2-4.1,12-8.9,17.2-14.6c7.5-8.2,13.4-17.9,18.4-28.3
					c9.4-20,15.5-43.7,26.6-65.2c1.9-3.7,4-7.4,6.2-10.9c10.9-17.2,25.6-31.7,41-41C292.4-68.4,317.4-71,345.8-70
					c8.6,0.2,17.7,0.9,27.3,2c29.7,3.6,62.7,11.9,94.5,7c1-0.2,2.1-0.3,3.1-0.5c42.8-7.9,79.7-42.4,86-85.3"/>
				<path class="st35" d="M-304.2,50.9c19.1-18.8,40.5-35.1,63.4-48.7c10.1-6,20.7-11.6,32.2-14.9c22.9-6.6,46.5-3.4,68.3,3.5
					c6,1.9,11.9,4,17.6,6.3c24.4,10,47.5,23.2,68.9,38.9C-32.7,51.7-13.2,69.9,9,86.1c26.6,18.4,56.2,36,86.2,40.5
					c2.5,0.4,5.1,0.6,7.7,0.8c19.5,1.3,38.1-3,53.7-12c6.5-3.7,12.5-8.3,18-13.8c8-7.9,14.3-17.3,19.7-27.6
					c10.1-19.7,16.8-43.2,27.9-64.7c1.9-3.7,4-7.4,6.1-10.9c10.6-17.3,24.9-32.3,39.8-42.4c25.9-17.7,50.8-23,79.4-24
					c8.7-0.4,17.8-0.2,27.5,0.4c29.9,2.1,63.1,9.8,94.8,4.1c1-0.2,2.1-0.4,3.1-0.6c42.6-9.1,78.4-44.9,83.4-87.9"/>
				<path class="st36" d="M-301.2,60.9c18.7-18.5,39.7-34.2,62.3-47.3c10-5.8,20.4-11.1,31.6-14.3c22.4-6.5,45.5-4.1,67,1.9
					c5.9,1.6,11.8,3.5,17.4,5.6c24.2,8.9,47.3,21,68.8,35.6C-33,57-13.3,74.1,8.7,89.7c26.8,18.1,56,36,85.9,41.5
					c2.5,0.5,5.1,0.8,7.7,1.1c19.5,2.1,38.5-1.2,54.6-9.4c6.8-3.4,13.1-7.7,18.9-12.9c8.4-7.5,15.2-16.7,20.9-26.8
					c10.8-19.3,18.2-42.6,29.2-64.2c1.9-3.7,3.9-7.4,6-10.9c10.4-17.4,24.1-32.8,38.6-43.8C295.6-55,320.5-63,349.3-66
					c8.7-1,18-1.4,27.7-1.2c30.2,0.7,63.5,7.8,95.1,1.2c1-0.2,2.1-0.4,3.1-0.7c42.4-10.2,77.1-47.3,80.9-90.5"/>
				<path class="st37" d="M-298.3,70.9c18.2-18.1,38.9-33.4,61.1-45.9c9.8-5.5,20.1-10.6,31-13.7c21.9-6.3,44.5-4.7,65.7,0.4
					c5.9,1.4,11.6,3,17.3,4.8c24.1,7.8,47.1,18.8,68.6,32.3c21.3,13.5,41.1,29.5,62.8,44.5c27,17.8,55.7,36,85.6,42.6
					c2.5,0.6,5.1,1,7.7,1.4c19.5,2.9,38.8,0.7,55.6-6.7c7-3.1,13.6-7,19.7-12c8.8-7.2,16-16.1,22.2-26.1
					c11.6-19,19.5-42.1,30.5-63.7c1.9-3.7,3.9-7.4,6-11c10.2-17.5,23.4-33.4,37.4-45.3C297.3-48.3,322-59,351-64
					c8.8-1.6,18.1-2.5,28-2.8c30.4-0.7,64,5.7,95.5-1.7c1-0.2,2-0.5,3.1-0.8c42.2-11.3,75.8-49.7,78.4-93.2"/>
				<path class="st38" d="M-295.3,80.9c17.8-17.7,38.1-32.6,59.9-44.5c9.7-5.3,19.7-10.1,30.4-13.2c21.4-6.2,43.4-5.3,64.4-1.2
					c5.8,1.1,11.5,2.5,17.1,4.1c23.9,6.7,46.9,16.6,68.5,29c21.4,12.4,41.4,27.3,62.8,41.7c27.2,17.6,55.4,36,85.3,43.7
					c2.5,0.6,5.1,1.2,7.6,1.7c19.6,3.7,39.2,2.5,56.6-4c7.3-2.7,14.2-6.4,20.6-11.1c9.3-6.8,16.9-15.5,23.5-25.3
					c12.3-18.6,20.9-41.6,31.8-63.2c1.9-3.7,3.8-7.4,5.9-11c10-17.7,22.6-33.9,36.2-46.7C298.9-41.6,323.6-55,352.8-62
					c8.9-2.1,18.2-3.6,28.2-4.4c30.6-2.1,64.4,3.6,95.8-4.6c1-0.3,2-0.6,3.1-0.9c42-12.4,74.5-52.1,75.8-95.8"/>
				<path class="st39" d="M-292.4,90.9c17.3-17.3,37.2-31.7,58.7-43.1c9.5-5.1,19.4-9.6,29.8-12.6c20.8-6.1,42.4-6,63.1-2.7
					c5.7,0.9,11.4,2,17,3.3C-100,41.3-77,50.1-55.3,61.5c21.5,11.3,41.7,25.1,62.8,38.9c27.4,17.3,55.2,36,85,44.7
					c2.5,0.7,5.1,1.4,7.6,2c19.6,4.5,39.6,4.4,57.6-1.3c7.5-2.4,14.7-5.7,21.4-10.2c9.7-6.5,17.8-14.9,24.7-24.6
					C216.9,92.7,226.1,70,237,48.4c1.9-3.7,3.8-7.4,5.8-11.1c9.8-17.8,21.9-34.4,35-48.1c22.9-24,47.4-40.2,76.8-49.1
					c8.9-2.7,18.4-4.8,28.4-6c30.9-3.6,64.9,1.6,96.1-7.5c1-0.3,2-0.6,3-0.9c41.8-13.6,73.2-54.5,73.3-98.4"/>
				<path class="st40" d="M-289.4,101c16.9-16.9,36.4-30.9,57.6-41.7c9.4-4.8,19.1-9,29.3-12c20.3-6,41.4-6.6,61.8-4.3
					c5.7,0.6,11.3,1.5,16.8,2.5c23.6,4.4,46.5,12.2,68.3,22.5c21.6,10.2,42,23,62.8,36.1C34.7,121,62,140,91.8,149.8
					c2.5,0.8,5.1,1.6,7.6,2.3c19.6,5.2,40,6.2,58.6,1.3c7.8-2,15.3-5.1,22.3-9.4c10.2-6.2,18.7-14.4,26-23.8
					c13.8-17.9,23.6-40.5,34.4-62.2c1.9-3.8,3.8-7.5,5.7-11.1c9.5-17.9,21.1-35,33.8-49.6c22.1-25.6,46.5-44.5,76.1-55.4
					c9-3.3,18.5-5.9,28.6-7.6c31.1-5,65.3-0.5,96.4-10.3c1-0.3,2-0.7,3-1c41.6-14.7,71.9-57,70.7-101.1"/>
				<path class="st41" d="M-286.5,111c16.4-16.6,35.6-30,56.4-40.3c9.2-4.6,18.7-8.5,28.7-11.5c19.8-5.8,40.4-7.3,60.5-5.8
					c5.6,0.4,11.1,1,16.6,1.8c23.4,3.3,46.3,10,68.2,19.2c21.6,9.1,42.3,20.8,62.8,33.3c27.7,16.7,54.6,35.9,84.3,46.9
					c2.5,0.9,5.1,1.8,7.6,2.6c19.6,6,40.3,8.1,59.6,4c8-1.7,15.8-4.5,23.2-8.5c10.6-5.8,19.5-13.8,27.2-23.1
					c14.5-17.6,24.9-40,35.7-61.6c1.9-3.8,3.7-7.5,5.6-11.1c9.3-18,20.3-35.5,32.6-51C303.9-21.4,328.2-43,358-55.9
					c9.1-3.9,18.7-7,28.9-9.2c31.3-6.4,65.7-2.6,96.8-13.2c1-0.3,2-0.7,3-1.1c41.4-15.8,70.6-59.4,68.2-103.7"/>
				<path class="st42" d="M-283.5,121c16-16.2,34.8-29.2,55.2-38.9c9-4.3,18.4-8,28.1-10.9c19.3-5.7,39.4-7.9,59.2-7.4
					c5.5,0.1,11,0.5,16.5,1c23.2,2.2,46.1,7.8,68.1,15.9c21.7,8,42.6,18.6,62.8,30.5c27.9,16.4,54.4,35.9,84,47.9
					c2.5,1,5.1,2,7.6,2.9c19.6,6.8,40.7,9.9,60.5,6.7c8.3-1.4,16.4-3.8,24-7.6c11.1-5.5,20.4-13.2,28.5-22.3
					c15.3-17.2,26.2-39.5,36.9-61.1c1.9-3.8,3.7-7.5,5.6-11.2c9.1-18.1,19.6-36,31.3-52.5c20.6-28.8,44.8-53.1,74.8-67.9
					c9.1-4.5,18.8-8.2,29.1-10.7c31.6-7.9,66.2-4.6,97.1-16.1c1-0.4,2-0.8,3-1.2c41.2-16.9,69.3-61.8,65.7-106.3"/>
				<path class="st1" d="M-280.6,131c36.1-36.7,88-55.8,139.5-56.8S-38.7,89.3,6,114.8c28.1,16.1,54.1,35.9,83.7,49
					c29.6,13.1,64.5,18.9,94,5.8c37-16.5,55.7-57,73.5-93.4c29.2-59.8,69.7-121.7,133.6-140.4c31.8-9.3,66.6-6.7,97.4-19
					c42.7-17.1,71.1-64.4,66.1-110.2"/>
			</g>
		</g>
	</g>
</g>
</svg>
