<?xml version="1.0" encoding="utf-8"?>
<!-- Generator: Adobe Illustrator 24.0.1, SVG Export Plug-In . SVG Version: 6.00 Build 0)  -->
<svg version="1.1" id="Layer_1" xmlns="http://www.w3.org/2000/svg" xmlns:xlink="http://www.w3.org/1999/xlink" x="0px" y="0px"
	 viewBox="0 0 558.8 700" style="enable-background:new 0 0 558.8 700;" xml:space="preserve">
<style type="text/css">
	.st0{clip-path:url(#SVGID_2_);}
	.st1{fill:none;stroke:#6EE7B7;stroke-width:3.0624;stroke-linecap:round;stroke-linejoin:round;stroke-miterlimit:10;}
	.st2{fill:none;stroke:#6EE7B7;stroke-width:1.5312;stroke-linecap:round;stroke-linejoin:round;stroke-miterlimit:10;}
	.st3{fill:none;stroke:#6EE7B7;stroke-width:1.1484;stroke-linecap:round;stroke-linejoin:round;stroke-miterlimit:10;}
	.st4{fill:none;stroke:#6EE7B7;stroke-width:0.7656;stroke-linecap:round;stroke-linejoin:round;stroke-miterlimit:10;}
	.st5{fill:none;stroke:#6EE7B7;stroke-width:0.3828;stroke-linecap:round;stroke-linejoin:round;stroke-miterlimit:10;}
	.st6{fill:none;stroke:#F1FDF8;stroke-width:0.9155;stroke-miterlimit:10;}
	.st7{fill:#6EE7B7;}
	.st8{fill:#818CF8;}
	.st9{fill:#06B6D4;}
	.st10{fill:none;stroke:#06B6D4;stroke-miterlimit:10;}
	.st11{fill:none;stroke:#6EE7B7;stroke-width:1.3251;stroke-linecap:round;stroke-linejoin:round;stroke-miterlimit:10;}
</style>
<g>
	<defs>
		<rect id="SVGID_1_" width="558.8" height="700"/>
	</defs>
	<clipPath id="SVGID_2_">
		<use xlink:href="#SVGID_1_"  style="overflow:visible;"/>
	</clipPath>
	<g class="st0">
		<path class="st1" d="M-18.4,442.8c14.1-3.8,29-5.8,44.3-5.8c94.6,0,171.2,76.7,171.2,171.2c0,46-18.1,87.7-47.6,118.5"/>
		<path class="st2" d="M-24.5,462c13.1-3.5,26.9-5.4,41-5.4c87.6,0,158.7,71,158.7,158.7c0,42.6-16.8,81.3-44.1,109.8"/>
		<path class="st3" d="M-30.7,482c11.9-3.2,24.5-4.9,37.4-4.9c80,0,144.8,64.8,144.8,144.8c0,38.9-15.3,74.2-40.3,100.2"/>
		<path class="st4" d="M-30.7,503.1c10.6-2.8,21.7-4.3,33.2-4.3c70.9,0,128.4,57.5,128.4,128.4c0,34.5-13.6,65.8-35.7,88.8"/>
		<path class="st5" d="M-30.7,522.7c9.4-2.5,19.3-3.8,29.4-3.8c62.8,0,113.8,50.9,113.8,113.8c0,30.6-12,58.3-31.6,78.7"/>
		<polygon class="st6" points="254.9,257.7 250.2,253 242.9,260.3 235.7,253 231,257.7 238.2,265 231,272.2 235.7,276.9 
			242.9,269.7 250.2,276.9 254.9,272.2 247.6,265 		"/>
		<polygon class="st7" points="230,543.4 227.6,541 223.8,544.7 220.1,541 217.7,543.4 221.4,547.1 217.7,550.9 220.1,553.3 
			223.8,549.6 227.6,553.3 230,550.9 226.3,547.1 		"/>
		<polygon class="st7" points="360.7,641.8 360.7,638.4 355.4,638.4 355.4,633.1 351.9,633.1 351.9,638.4 346.6,638.4 346.6,641.8 
			351.9,641.8 351.9,647.1 355.4,647.1 355.4,641.8 		"/>
		<g>
			<path class="st8" d="M47.7,278.5c0,1.4-1.1,2.5-2.5,2.5c-1.4,0-2.5-1.1-2.5-2.5c0-1.4,1.1-2.5,2.5-2.5
				C46.6,276,47.7,277.1,47.7,278.5z"/>
			<path class="st9" d="M47.7,294c0,1.4-1.1,2.5-2.5,2.5c-1.4,0-2.5-1.1-2.5-2.5s1.1-2.5,2.5-2.5C46.6,291.6,47.7,292.7,47.7,294z"
				/>
			<path class="st9" d="M47.7,309.6c0,1.4-1.1,2.5-2.5,2.5c-1.4,0-2.5-1.1-2.5-2.5c0-1.4,1.1-2.5,2.5-2.5
				C46.6,307.1,47.7,308.2,47.7,309.6z"/>
			<path class="st9" d="M47.7,325.1c0,1.4-1.1,2.5-2.5,2.5c-1.4,0-2.5-1.1-2.5-2.5c0-1.4,1.1-2.5,2.5-2.5
				C46.6,322.7,47.7,323.8,47.7,325.1z"/>
			<path class="st9" d="M47.7,340.7c0,1.4-1.1,2.5-2.5,2.5c-1.4,0-2.5-1.1-2.5-2.5c0-1.4,1.1-2.5,2.5-2.5
				C46.6,338.2,47.7,339.3,47.7,340.7z"/>
			<path class="st9" d="M64.2,278.5c0,1.4-1.1,2.5-2.5,2.5c-1.4,0-2.5-1.1-2.5-2.5c0-1.4,1.1-2.5,2.5-2.5
				C63.1,276,64.2,277.1,64.2,278.5z"/>
			<path class="st9" d="M64.2,294c0,1.4-1.1,2.5-2.5,2.5c-1.4,0-2.5-1.1-2.5-2.5s1.1-2.5,2.5-2.5C63.1,291.6,64.2,292.7,64.2,294z"
				/>
			<path class="st9" d="M64.2,309.6c0,1.4-1.1,2.5-2.5,2.5c-1.4,0-2.5-1.1-2.5-2.5c0-1.4,1.1-2.5,2.5-2.5
				C63.1,307.1,64.2,308.2,64.2,309.6z"/>
			<path class="st9" d="M64.2,325.1c0,1.4-1.1,2.5-2.5,2.5c-1.4,0-2.5-1.1-2.5-2.5c0-1.4,1.1-2.5,2.5-2.5
				C63.1,322.7,64.2,323.8,64.2,325.1z"/>
			<path class="st7" d="M64.2,340.7c0,1.4-1.1,2.5-2.5,2.5c-1.4,0-2.5-1.1-2.5-2.5c0-1.4,1.1-2.5,2.5-2.5
				C63.1,338.2,64.2,339.3,64.2,340.7z"/>
			<path class="st9" d="M80.8,278.5c0,1.4-1.1,2.5-2.5,2.5c-1.4,0-2.5-1.1-2.5-2.5c0-1.4,1.1-2.5,2.5-2.5
				C79.7,276,80.8,277.1,80.8,278.5z"/>
			<path class="st9" d="M80.8,294c0,1.4-1.1,2.5-2.5,2.5c-1.4,0-2.5-1.1-2.5-2.5s1.1-2.5,2.5-2.5C79.7,291.6,80.8,292.7,80.8,294z"
				/>
			<path class="st8" d="M80.8,309.6c0,1.4-1.1,2.5-2.5,2.5c-1.4,0-2.5-1.1-2.5-2.5c0-1.4,1.1-2.5,2.5-2.5
				C79.7,307.1,80.8,308.2,80.8,309.6z"/>
			<path class="st9" d="M80.8,325.1c0,1.4-1.1,2.5-2.5,2.5c-1.4,0-2.5-1.1-2.5-2.5c0-1.4,1.1-2.5,2.5-2.5
				C79.7,322.7,80.8,323.8,80.8,325.1z"/>
			<path class="st9" d="M80.8,340.7c0,1.4-1.1,2.5-2.5,2.5c-1.4,0-2.5-1.1-2.5-2.5c0-1.4,1.1-2.5,2.5-2.5
				C79.7,338.2,80.8,339.3,80.8,340.7z"/>
			<path class="st9" d="M47.7,356.2c0,1.4-1.1,2.5-2.5,2.5c-1.4,0-2.5-1.1-2.5-2.5c0-1.4,1.1-2.5,2.5-2.5
				C46.6,353.8,47.7,354.9,47.7,356.2z"/>
			<path class="st9" d="M47.7,371.8c0,1.4-1.1,2.5-2.5,2.5c-1.4,0-2.5-1.1-2.5-2.5c0-1.4,1.1-2.5,2.5-2.5
				C46.6,369.3,47.7,370.4,47.7,371.8z"/>
			<path class="st9" d="M47.7,387.4c0,1.4-1.1,2.5-2.5,2.5c-1.4,0-2.5-1.1-2.5-2.5c0-1.4,1.1-2.5,2.5-2.5
				C46.6,384.9,47.7,386,47.7,387.4z"/>
			<path class="st9" d="M64.2,356.2c0,1.4-1.1,2.5-2.5,2.5c-1.4,0-2.5-1.1-2.5-2.5c0-1.4,1.1-2.5,2.5-2.5
				C63.1,353.8,64.2,354.9,64.2,356.2z"/>
			<path class="st9" d="M64.2,371.8c0,1.4-1.1,2.5-2.5,2.5c-1.4,0-2.5-1.1-2.5-2.5c0-1.4,1.1-2.5,2.5-2.5
				C63.1,369.3,64.2,370.4,64.2,371.8z"/>
			<path class="st9" d="M64.2,387.4c0,1.4-1.1,2.5-2.5,2.5c-1.4,0-2.5-1.1-2.5-2.5c0-1.4,1.1-2.5,2.5-2.5
				C63.1,384.9,64.2,386,64.2,387.4z"/>
			<path class="st9" d="M80.8,356.2c0,1.4-1.1,2.5-2.5,2.5c-1.4,0-2.5-1.1-2.5-2.5c0-1.4,1.1-2.5,2.5-2.5
				C79.7,353.8,80.8,354.9,80.8,356.2z"/>
			<path class="st9" d="M80.8,371.8c0,1.4-1.1,2.5-2.5,2.5c-1.4,0-2.5-1.1-2.5-2.5c0-1.4,1.1-2.5,2.5-2.5
				C79.7,369.3,80.8,370.4,80.8,371.8z"/>
			<path class="st9" d="M80.8,387.4c0,1.4-1.1,2.5-2.5,2.5c-1.4,0-2.5-1.1-2.5-2.5c0-1.4,1.1-2.5,2.5-2.5
				C79.7,384.9,80.8,386,80.8,387.4z"/>
			<path class="st9" d="M97.3,278.5c0,1.4-1.1,2.5-2.5,2.5c-1.4,0-2.5-1.1-2.5-2.5c0-1.4,1.1-2.5,2.5-2.5
				C96.2,276,97.3,277.1,97.3,278.5z"/>
			<path class="st9" d="M97.3,294c0,1.4-1.1,2.5-2.5,2.5c-1.4,0-2.5-1.1-2.5-2.5s1.1-2.5,2.5-2.5C96.2,291.6,97.3,292.7,97.3,294z"
				/>
			<path class="st9" d="M97.3,309.6c0,1.4-1.1,2.5-2.5,2.5c-1.4,0-2.5-1.1-2.5-2.5c0-1.4,1.1-2.5,2.5-2.5
				C96.2,307.1,97.3,308.2,97.3,309.6z"/>
			<path class="st9" d="M97.3,325.1c0,1.4-1.1,2.5-2.5,2.5c-1.4,0-2.5-1.1-2.5-2.5c0-1.4,1.1-2.5,2.5-2.5
				C96.2,322.7,97.3,323.8,97.3,325.1z"/>
			<path class="st9" d="M97.3,340.7c0,1.4-1.1,2.5-2.5,2.5c-1.4,0-2.5-1.1-2.5-2.5c0-1.4,1.1-2.5,2.5-2.5
				C96.2,338.2,97.3,339.3,97.3,340.7z"/>
			<path class="st9" d="M113.9,278.5c0,1.4-1.1,2.5-2.5,2.5c-1.4,0-2.5-1.1-2.5-2.5c0-1.4,1.1-2.5,2.5-2.5
				C112.7,276,113.9,277.1,113.9,278.5z"/>
			<path class="st7" d="M113.9,294c0,1.4-1.1,2.5-2.5,2.5c-1.4,0-2.5-1.1-2.5-2.5s1.1-2.5,2.5-2.5
				C112.7,291.6,113.9,292.7,113.9,294z"/>
			<path class="st9" d="M113.9,309.6c0,1.4-1.1,2.5-2.5,2.5c-1.4,0-2.5-1.1-2.5-2.5c0-1.4,1.1-2.5,2.5-2.5
				C112.7,307.1,113.9,308.2,113.9,309.6z"/>
			<path class="st9" d="M113.9,325.1c0,1.4-1.1,2.5-2.5,2.5c-1.4,0-2.5-1.1-2.5-2.5c0-1.4,1.1-2.5,2.5-2.5
				C112.7,322.7,113.9,323.8,113.9,325.1z"/>
			<path class="st9" d="M113.9,340.7c0,1.4-1.1,2.5-2.5,2.5c-1.4,0-2.5-1.1-2.5-2.5c0-1.4,1.1-2.5,2.5-2.5
				C112.7,338.2,113.9,339.3,113.9,340.7z"/>
			<path class="st9" d="M130.4,278.5c0,1.4-1.1,2.5-2.5,2.5c-1.4,0-2.5-1.1-2.5-2.5c0-1.4,1.1-2.5,2.5-2.5
				C129.3,276,130.4,277.1,130.4,278.5z"/>
			<path class="st9" d="M130.4,294c0,1.4-1.1,2.5-2.5,2.5c-1.4,0-2.5-1.1-2.5-2.5s1.1-2.5,2.5-2.5
				C129.3,291.6,130.4,292.7,130.4,294z"/>
			<path class="st9" d="M130.4,309.6c0,1.4-1.1,2.5-2.5,2.5c-1.4,0-2.5-1.1-2.5-2.5c0-1.4,1.1-2.5,2.5-2.5
				C129.3,307.1,130.4,308.2,130.4,309.6z"/>
			<path class="st9" d="M130.4,325.1c0,1.4-1.1,2.5-2.5,2.5c-1.4,0-2.5-1.1-2.5-2.5c0-1.4,1.1-2.5,2.5-2.5
				C129.3,322.7,130.4,323.8,130.4,325.1z"/>
			<path class="st9" d="M130.4,340.7c0,1.4-1.1,2.5-2.5,2.5c-1.4,0-2.5-1.1-2.5-2.5c0-1.4,1.1-2.5,2.5-2.5
				C129.3,338.2,130.4,339.3,130.4,340.7z"/>
			<path class="st9" d="M97.3,356.2c0,1.4-1.1,2.5-2.5,2.5c-1.4,0-2.5-1.1-2.5-2.5c0-1.4,1.1-2.5,2.5-2.5
				C96.2,353.8,97.3,354.9,97.3,356.2z"/>
			<path class="st9" d="M97.3,371.8c0,1.4-1.1,2.5-2.5,2.5c-1.4,0-2.5-1.1-2.5-2.5c0-1.4,1.1-2.5,2.5-2.5
				C96.2,369.3,97.3,370.4,97.3,371.8z"/>
			<path class="st7" d="M97.3,387.4c0,1.4-1.1,2.5-2.5,2.5c-1.4,0-2.5-1.1-2.5-2.5c0-1.4,1.1-2.5,2.5-2.5
				C96.2,384.9,97.3,386,97.3,387.4z"/>
			<path class="st9" d="M113.9,356.2c0,1.4-1.1,2.5-2.5,2.5c-1.4,0-2.5-1.1-2.5-2.5c0-1.4,1.1-2.5,2.5-2.5
				C112.7,353.8,113.9,354.9,113.9,356.2z"/>
			<path class="st9" d="M113.9,371.8c0,1.4-1.1,2.5-2.5,2.5c-1.4,0-2.5-1.1-2.5-2.5c0-1.4,1.1-2.5,2.5-2.5
				C112.7,369.3,113.9,370.4,113.9,371.8z"/>
			<path class="st9" d="M113.9,387.4c0,1.4-1.1,2.5-2.5,2.5c-1.4,0-2.5-1.1-2.5-2.5c0-1.4,1.1-2.5,2.5-2.5
				C112.7,384.9,113.9,386,113.9,387.4z"/>
			<path class="st7" d="M130.4,356.2c0,1.4-1.1,2.5-2.5,2.5c-1.4,0-2.5-1.1-2.5-2.5c0-1.4,1.1-2.5,2.5-2.5
				C129.3,353.8,130.4,354.9,130.4,356.2z"/>
			<path class="st9" d="M130.4,371.8c0,1.4-1.1,2.5-2.5,2.5c-1.4,0-2.5-1.1-2.5-2.5c0-1.4,1.1-2.5,2.5-2.5
				C129.3,369.3,130.4,370.4,130.4,371.8z"/>
			<path class="st9" d="M130.4,387.4c0,1.4-1.1,2.5-2.5,2.5c-1.4,0-2.5-1.1-2.5-2.5c0-1.4,1.1-2.5,2.5-2.5
				C129.3,384.9,130.4,386,130.4,387.4z"/>
		</g>
		<polyline class="st10" points="266.5,367 276.5,353.7 286.5,367 296.4,353.7 306.4,367 316.4,353.7 326.4,367 336.4,353.7 
			346.4,367 356.4,353.7 366.4,367 376.4,353.7 386.3,367 		"/>
		<polyline class="st11" points="306.9,347.3 316.9,334 326.9,347.3 336.8,334 346.8,347.3 356.8,334 366.8,347.3 376.8,334 
			386.8,347.3 396.8,334 406.8,347.3 416.8,334 426.7,347.3 		"/>
		<g>
			
				<rect x="250.2" y="418.5" transform="matrix(-1.836970e-16 1 -1 -1.836970e-16 685.085 178.5648)" class="st7" width="6.2" height="26.6"/>
			
				<rect x="250.2" y="432.1" transform="matrix(-1.836970e-16 1 -1 -1.836970e-16 698.712 192.1918)" class="st9" width="6.2" height="26.6"/>
			
				<rect x="250.2" y="445.8" transform="matrix(-1.836970e-16 1 -1 -1.836970e-16 712.3391 205.8189)" class="st8" width="6.2" height="26.6"/>
			
				<rect x="250.2" y="459.4" transform="matrix(-1.836970e-16 1 -1 -1.836970e-16 725.9662 219.446)" class="st7" width="6.2" height="26.6"/>
			
				<rect x="250.2" y="473" transform="matrix(-1.836970e-16 1 -1 -1.836970e-16 739.5933 233.0731)" class="st9" width="6.2" height="26.6"/>
		</g>
		<path class="st9" d="M173.6,339.1c0,1.3-1,2.3-2.3,2.3c-1.3,0-2.3-1-2.3-2.3c0-1.3,1-2.3,2.3-2.3
			C172.6,336.8,173.6,337.9,173.6,339.1z"/>
		<path class="st9" d="M289.2,573.4c0,1.3-1,2.3-2.3,2.3c-1.3,0-2.3-1-2.3-2.3c0-1.3,1-2.3,2.3-2.3
			C288.1,571.1,289.2,572.2,289.2,573.4z"/>
		<path class="st7" d="M356.6,267.8c0,1.3-1,2.3-2.3,2.3c-1.3,0-2.3-1-2.3-2.3c0-1.3,1-2.3,2.3-2.3
			C355.6,265.5,356.6,266.5,356.6,267.8z"/>
		<path class="st8" d="M279.1,675.5c0,2-1.6,3.6-3.6,3.6c-2,0-3.6-1.6-3.6-3.6c0-2,1.6-3.6,3.6-3.6
			C277.5,671.9,279.1,673.5,279.1,675.5z"/>
		<path class="st7" d="M231,171.8c0,2-1.6,3.6-3.6,3.6c-2,0-3.6-1.6-3.6-3.6c0-2,1.6-3.6,3.6-3.6C229.4,168.2,231,169.8,231,171.8z"
			/>
	</g>
</g>
</svg>
