<?xml version="1.0" encoding="utf-8"?>
<!-- Generator: Adobe Illustrator 24.0.1, SVG Export Plug-In . SVG Version: 6.00 Build 0)  -->
<svg version="1.1" id="Layer_1" xmlns="http://www.w3.org/2000/svg" xmlns:xlink="http://www.w3.org/1999/xlink" x="0px" y="0px"
	 viewBox="0 0 639.4 700" style="enable-background:new 0 0 639.4 700;" xml:space="preserve">
<style type="text/css">
	
		.st0{clip-path:url(#SVGID_2_);fill:none;stroke:#6EE7B7;stroke-width:2.3733;stroke-linecap:round;stroke-linejoin:round;stroke-miterlimit:10;}
	.st1{opacity:0.5;clip-path:url(#SVGID_2_);}
	.st2{opacity:0.5;}
	.st3{clip-path:url(#SVGID_4_);}
	.st4{fill:#6EE7B7;}
	.st5{clip-path:url(#SVGID_2_);fill:#6EE7B7;}
	.st6{clip-path:url(#SVGID_2_);fill:#06B6D4;}
	.st7{clip-path:url(#SVGID_2_);}
	.st8{fill:#818CF8;}
	.st9{fill:#06B6D4;}
	.st10{fill:none;stroke:#06B6D4;stroke-width:1.1866;stroke-linecap:round;stroke-linejoin:round;stroke-miterlimit:10;}
	.st11{fill:none;stroke:#818CF8;stroke-width:1.1866;stroke-linecap:round;stroke-linejoin:round;stroke-miterlimit:10;}
	.st12{fill:none;stroke:#6EE7B7;stroke-width:1.1866;stroke-linecap:round;stroke-linejoin:round;stroke-miterlimit:10;}
	
		.st13{clip-path:url(#SVGID_2_);fill:none;stroke:#6EE7B7;stroke-width:1.1866;stroke-linecap:round;stroke-linejoin:round;stroke-miterlimit:10;}
	.st14{clip-path:url(#SVGID_2_);fill:#818CF8;}
</style>
<g>
	<defs>
		<rect id="SVGID_1_" transform="matrix(-1 -1.224647e-16 1.224647e-16 -1 639.4268 700)" width="639.4" height="700"/>
	</defs>
	<clipPath id="SVGID_2_">
		<use xlink:href="#SVGID_1_"  style="overflow:visible;"/>
	</clipPath>
	<path class="st0" d="M290.1,305.4c11.5-8.7,25.8-13.8,41.4-13.8c38,0,68.8,30.8,68.8,68.8c0,18.5-7.3,35.2-19.1,47.6"/>
	<g class="st1">
		<defs>
			
				<ellipse id="SVGID_3_" transform="matrix(0.9302 -0.3669 0.3669 0.9302 -157.7372 227.6056)" class="st2" cx="519.8" cy="528.7" rx="47.3" ry="47.3"/>
		</defs>
		<clipPath id="SVGID_4_">
			<use xlink:href="#SVGID_3_"  style="overflow:visible;"/>
		</clipPath>
		<g class="st3">
			<g>
				<g>
					
						<rect x="463.7" y="528.1" transform="matrix(0.8613 -0.5081 0.5081 0.8613 -196.5258 337.4177)" class="st4" width="112.2" height="1.2"/>
				</g>
				<g>
					
						<rect x="460.9" y="523.5" transform="matrix(0.8613 -0.5082 0.5082 0.8613 -194.5773 335.4479)" class="st4" width="112.2" height="1.2"/>
				</g>
				<g>
					
						<rect x="458.2" y="518.9" transform="matrix(0.8613 -0.5082 0.5082 0.8613 -192.6216 333.4508)" class="st4" width="112.2" height="1.2"/>
				</g>
				<g>
					
						<rect x="452.8" y="509.7" transform="matrix(0.8613 -0.5082 0.5082 0.8613 -188.6938 329.3954)" class="st4" width="112.2" height="1.2"/>
				</g>
				<g>
					
						<rect x="455.5" y="514.3" transform="matrix(0.8613 -0.5081 0.5081 0.8613 -190.6532 331.4061)" class="st4" width="112.2" height="1.2"/>
				</g>
				<g>
					
						<rect x="450.1" y="505.1" transform="matrix(0.8613 -0.5082 0.5082 0.8613 -186.7325 327.3779)" class="st4" width="112.2" height="1.2"/>
				</g>
				<g>
					
						<rect x="447.4" y="500.5" transform="matrix(0.8613 -0.5081 0.5081 0.8613 -184.763 325.3273)" class="st4" width="112.2" height="1.2"/>
				</g>
				<g>
					
						<rect x="444.7" y="495.9" transform="matrix(0.8613 -0.5081 0.5081 0.8613 -182.8019 323.3099)" class="st4" width="112.2" height="1.2"/>
				</g>
				<g>
					
						<rect x="441.9" y="491.3" transform="matrix(0.8613 -0.5081 0.5081 0.8613 -180.8473 321.3188)" class="st4" width="112.2" height="1.2"/>
				</g>
				<g>
					
						<rect x="488.1" y="569.5" transform="matrix(0.8613 -0.5081 0.5081 0.8613 -214.1791 355.5866)" class="st4" width="112.2" height="1.2"/>
				</g>
				<g>
					
						<rect x="485.4" y="564.9" transform="matrix(0.8612 -0.5082 0.5082 0.8612 -212.2384 353.6421)" class="st4" width="112.2" height="1.2"/>
				</g>
				<g>
					
						<rect x="479.9" y="555.7" transform="matrix(0.8613 -0.5082 0.5082 0.8613 -208.3059 349.5708)" class="st4" width="112.2" height="1.2"/>
				</g>
				<g>
					
						<rect x="482.7" y="560.3" transform="matrix(0.8613 -0.5082 0.5082 0.8613 -210.2672 351.5884)" class="st4" width="112.2" height="1.2"/>
				</g>
				<g>
					
						<rect x="477.2" y="551.1" transform="matrix(0.8613 -0.5082 0.5082 0.8613 -206.3468 347.5609)" class="st4" width="112.2" height="1.2"/>
				</g>
				<g>
					
						<rect x="474.5" y="546.5" transform="matrix(0.8613 -0.5082 0.5082 0.8613 -204.3834 345.5356)" class="st4" width="112.2" height="1.2"/>
				</g>
				<g>
					
						<rect x="471.8" y="541.9" transform="matrix(0.8613 -0.5081 0.5081 0.8613 -202.4185 343.5038)" class="st4" width="112.2" height="1.2"/>
				</g>
				<g>
					
						<rect x="469.1" y="537.3" transform="matrix(0.8613 -0.5081 0.5081 0.8613 -200.4591 341.4933)" class="st4" width="112.2" height="1.2"/>
				</g>
				<g>
					
						<rect x="466.4" y="532.7" transform="matrix(0.8613 -0.5082 0.5082 0.8613 -198.5037 339.4974)" class="st4" width="112.2" height="1.2"/>
				</g>
			</g>
		</g>
	</g>
	<polygon class="st5" points="467.7,590.9 463.4,586.7 457,593.2 450.5,586.7 446.3,590.9 452.7,597.4 446.3,603.9 450.5,608.1 
		457,601.6 463.4,608.1 467.7,603.9 461.2,597.4 	"/>
	<polygon class="st6" points="495.9,335.4 495.9,332.3 491.2,332.3 491.2,327.6 488.1,327.6 488.1,332.3 483.4,332.3 483.4,335.4 
		488.1,335.4 488.1,340.1 491.2,340.1 491.2,335.4 	"/>
	<g class="st7">
		<path class="st8" d="M343.4,338.8c-1.4,0-2.5-1.1-2.5-2.5c0-1.4,1.1-2.5,2.5-2.5c1.4,0,2.5,1.1,2.5,2.5
			C345.8,337.7,344.7,338.8,343.4,338.8z"/>
		<path class="st8" d="M327.9,338.8c-1.4,0-2.5-1.1-2.5-2.5c0-1.4,1.1-2.5,2.5-2.5c1.4,0,2.5,1.1,2.5,2.5
			C330.4,337.7,329.3,338.8,327.9,338.8z"/>
		<path class="st9" d="M312.4,338.8c-1.4,0-2.5-1.1-2.5-2.5c0-1.4,1.1-2.5,2.5-2.5c1.4,0,2.5,1.1,2.5,2.5
			C314.9,337.7,313.8,338.8,312.4,338.8z"/>
		<path class="st8" d="M297,338.8c-1.4,0-2.5-1.1-2.5-2.5c0-1.4,1.1-2.5,2.5-2.5c1.4,0,2.5,1.1,2.5,2.5
			C299.4,337.7,298.3,338.8,297,338.8z"/>
		<path class="st8" d="M281.5,338.8c-1.4,0-2.5-1.1-2.5-2.5c0-1.4,1.1-2.5,2.5-2.5c1.4,0,2.5,1.1,2.5,2.5
			C284,337.7,282.9,338.8,281.5,338.8z"/>
		<path class="st8" d="M343.4,355.2c-1.4,0-2.5-1.1-2.5-2.5c0-1.4,1.1-2.5,2.5-2.5c1.4,0,2.5,1.1,2.5,2.5
			C345.8,354.1,344.7,355.2,343.4,355.2z"/>
		<path class="st4" d="M327.9,355.2c-1.4,0-2.5-1.1-2.5-2.5c0-1.4,1.1-2.5,2.5-2.5c1.4,0,2.5,1.1,2.5,2.5
			C330.4,354.1,329.3,355.2,327.9,355.2z"/>
		<path class="st8" d="M312.4,355.2c-1.4,0-2.5-1.1-2.5-2.5c0-1.4,1.1-2.5,2.5-2.5c1.4,0,2.5,1.1,2.5,2.5
			C314.9,354.1,313.8,355.2,312.4,355.2z"/>
		<path class="st8" d="M297,355.2c-1.4,0-2.5-1.1-2.5-2.5c0-1.4,1.1-2.5,2.5-2.5c1.4,0,2.5,1.1,2.5,2.5
			C299.4,354.1,298.3,355.2,297,355.2z"/>
		<path class="st8" d="M281.5,355.2c-1.4,0-2.5-1.1-2.5-2.5c0-1.4,1.1-2.5,2.5-2.5c1.4,0,2.5,1.1,2.5,2.5
			C284,354.1,282.9,355.2,281.5,355.2z"/>
		<path class="st9" d="M343.4,371.7c-1.4,0-2.5-1.1-2.5-2.5c0-1.4,1.1-2.5,2.5-2.5c1.4,0,2.5,1.1,2.5,2.5
			C345.8,370.6,344.7,371.7,343.4,371.7z"/>
		<path class="st8" d="M327.9,371.7c-1.4,0-2.5-1.1-2.5-2.5c0-1.4,1.1-2.5,2.5-2.5c1.4,0,2.5,1.1,2.5,2.5
			C330.4,370.6,329.3,371.7,327.9,371.7z"/>
		<path class="st4" d="M312.4,371.7c-1.4,0-2.5-1.1-2.5-2.5c0-1.4,1.1-2.5,2.5-2.5c1.4,0,2.5,1.1,2.5,2.5
			C314.9,370.6,313.8,371.7,312.4,371.7z"/>
		<path class="st8" d="M297,371.7c-1.4,0-2.5-1.1-2.5-2.5c0-1.4,1.1-2.5,2.5-2.5c1.4,0,2.5,1.1,2.5,2.5
			C299.4,370.6,298.3,371.7,297,371.7z"/>
		<path class="st8" d="M281.5,371.7c-1.4,0-2.5-1.1-2.5-2.5c0-1.4,1.1-2.5,2.5-2.5c1.4,0,2.5,1.1,2.5,2.5
			C284,370.6,282.9,371.7,281.5,371.7z"/>
		<path class="st8" d="M266,338.8c-1.4,0-2.5-1.1-2.5-2.5c0-1.4,1.1-2.5,2.5-2.5c1.4,0,2.5,1.1,2.5,2.5
			C268.5,337.7,267.4,338.8,266,338.8z"/>
		<path class="st8" d="M250.6,338.8c-1.4,0-2.5-1.1-2.5-2.5c0-1.4,1.1-2.5,2.5-2.5c1.4,0,2.5,1.1,2.5,2.5
			C253,337.7,251.9,338.8,250.6,338.8z"/>
		<path class="st8" d="M235.1,338.8c-1.4,0-2.5-1.1-2.5-2.5c0-1.4,1.1-2.5,2.5-2.5c1.4,0,2.5,1.1,2.5,2.5
			C237.6,337.7,236.5,338.8,235.1,338.8z"/>
		<path class="st8" d="M266,355.2c-1.4,0-2.5-1.1-2.5-2.5c0-1.4,1.1-2.5,2.5-2.5c1.4,0,2.5,1.1,2.5,2.5
			C268.5,354.1,267.4,355.2,266,355.2z"/>
		<circle class="st8" cx="250.6" cy="352.8" r="2.5"/>
		<path class="st8" d="M235.1,355.2c-1.4,0-2.5-1.1-2.5-2.5c0-1.4,1.1-2.5,2.5-2.5c1.4,0,2.5,1.1,2.5,2.5
			C237.6,354.1,236.5,355.2,235.1,355.2z"/>
		<path class="st8" d="M266,371.7c-1.4,0-2.5-1.1-2.5-2.5c0-1.4,1.1-2.5,2.5-2.5c1.4,0,2.5,1.1,2.5,2.5
			C268.5,370.6,267.4,371.7,266,371.7z"/>
		<path class="st8" d="M250.6,371.7c-1.4,0-2.5-1.1-2.5-2.5c0-1.4,1.1-2.5,2.5-2.5c1.4,0,2.5,1.1,2.5,2.5
			C253,370.6,251.9,371.7,250.6,371.7z"/>
		<path class="st8" d="M235.1,371.7c-1.4,0-2.5-1.1-2.5-2.5c0-1.4,1.1-2.5,2.5-2.5c1.4,0,2.5,1.1,2.5,2.5
			C237.6,370.6,236.5,371.7,235.1,371.7z"/>
		<path class="st8" d="M343.4,388.1c-1.4,0-2.5-1.1-2.5-2.5c0-1.4,1.1-2.5,2.5-2.5c1.4,0,2.5,1.1,2.5,2.5
			C345.8,387,344.7,388.1,343.4,388.1z"/>
		<path class="st8" d="M327.9,388.1c-1.4,0-2.5-1.1-2.5-2.5c0-1.4,1.1-2.5,2.5-2.5c1.4,0,2.5,1.1,2.5,2.5
			C330.4,387,329.3,388.1,327.9,388.1z"/>
		<path class="st8" d="M312.4,388.1c-1.4,0-2.5-1.1-2.5-2.5c0-1.4,1.1-2.5,2.5-2.5c1.4,0,2.5,1.1,2.5,2.5
			C314.9,387,313.8,388.1,312.4,388.1z"/>
		<path class="st8" d="M297,388.1c-1.4,0-2.5-1.1-2.5-2.5c0-1.4,1.1-2.5,2.5-2.5c1.4,0,2.5,1.1,2.5,2.5
			C299.4,387,298.3,388.1,297,388.1z"/>
		<path class="st8" d="M281.5,388.1c-1.4,0-2.5-1.1-2.5-2.5c0-1.4,1.1-2.5,2.5-2.5c1.4,0,2.5,1.1,2.5,2.5
			C284,387,282.9,388.1,281.5,388.1z"/>
		<path class="st4" d="M343.4,404.6c-1.4,0-2.5-1.1-2.5-2.5c0-1.4,1.1-2.5,2.5-2.5c1.4,0,2.5,1.1,2.5,2.5
			C345.8,403.4,344.7,404.6,343.4,404.6z"/>
		<path class="st8" d="M327.9,404.6c-1.4,0-2.5-1.1-2.5-2.5c0-1.4,1.1-2.5,2.5-2.5c1.4,0,2.5,1.1,2.5,2.5
			C330.4,403.4,329.3,404.6,327.9,404.6z"/>
		<path class="st8" d="M312.4,404.6c-1.4,0-2.5-1.1-2.5-2.5c0-1.4,1.1-2.5,2.5-2.5c1.4,0,2.5,1.1,2.5,2.5
			C314.9,403.4,313.8,404.6,312.4,404.6z"/>
		<path class="st8" d="M297,404.6c-1.4,0-2.5-1.1-2.5-2.5c0-1.4,1.1-2.5,2.5-2.5c1.4,0,2.5,1.1,2.5,2.5
			C299.4,403.4,298.3,404.6,297,404.6z"/>
		<path class="st8" d="M281.5,404.6c-1.4,0-2.5-1.1-2.5-2.5c0-1.4,1.1-2.5,2.5-2.5c1.4,0,2.5,1.1,2.5,2.5
			C284,403.4,282.9,404.6,281.5,404.6z"/>
		<path class="st8" d="M343.4,421c-1.4,0-2.5-1.1-2.5-2.5c0-1.4,1.1-2.5,2.5-2.5c1.4,0,2.5,1.1,2.5,2.5
			C345.8,419.9,344.7,421,343.4,421z"/>
		<path class="st8" d="M327.9,421c-1.4,0-2.5-1.1-2.5-2.5c0-1.4,1.1-2.5,2.5-2.5c1.4,0,2.5,1.1,2.5,2.5
			C330.4,419.9,329.3,421,327.9,421z"/>
		<path class="st8" d="M312.4,421c-1.4,0-2.5-1.1-2.5-2.5c0-1.4,1.1-2.5,2.5-2.5c1.4,0,2.5,1.1,2.5,2.5
			C314.9,419.9,313.8,421,312.4,421z"/>
		<path class="st9" d="M297,421c-1.4,0-2.5-1.1-2.5-2.5c0-1.4,1.1-2.5,2.5-2.5c1.4,0,2.5,1.1,2.5,2.5C299.4,419.9,298.3,421,297,421
			z"/>
		<path class="st8" d="M281.5,421c-1.4,0-2.5-1.1-2.5-2.5c0-1.4,1.1-2.5,2.5-2.5c1.4,0,2.5,1.1,2.5,2.5
			C284,419.9,282.9,421,281.5,421z"/>
		<path class="st8" d="M266,388.1c-1.4,0-2.5-1.1-2.5-2.5c0-1.4,1.1-2.5,2.5-2.5c1.4,0,2.5,1.1,2.5,2.5
			C268.5,387,267.4,388.1,266,388.1z"/>
		<path class="st8" d="M250.6,388.1c-1.4,0-2.5-1.1-2.5-2.5c0-1.4,1.1-2.5,2.5-2.5c1.4,0,2.5,1.1,2.5,2.5
			C253,387,251.9,388.1,250.6,388.1z"/>
		<path class="st8" d="M235.1,388.1c-1.4,0-2.5-1.1-2.5-2.5c0-1.4,1.1-2.5,2.5-2.5c1.4,0,2.5,1.1,2.5,2.5
			C237.6,387,236.5,388.1,235.1,388.1z"/>
		<path class="st4" d="M266,404.6c-1.4,0-2.5-1.1-2.5-2.5c0-1.4,1.1-2.5,2.5-2.5c1.4,0,2.5,1.1,2.5,2.5
			C268.5,403.4,267.4,404.6,266,404.6z"/>
		<path class="st8" d="M250.6,404.6c-1.4,0-2.5-1.1-2.5-2.5c0-1.4,1.1-2.5,2.5-2.5c1.4,0,2.5,1.1,2.5,2.5
			C253,403.4,251.9,404.6,250.6,404.6z"/>
		<path class="st8" d="M235.1,404.6c-1.4,0-2.5-1.1-2.5-2.5c0-1.4,1.1-2.5,2.5-2.5c1.4,0,2.5,1.1,2.5,2.5
			C237.6,403.4,236.5,404.6,235.1,404.6z"/>
		<path class="st8" d="M266,421c-1.4,0-2.5-1.1-2.5-2.5c0-1.4,1.1-2.5,2.5-2.5c1.4,0,2.5,1.1,2.5,2.5C268.5,419.9,267.4,421,266,421
			z"/>
		<path class="st8" d="M250.6,421c-1.4,0-2.5-1.1-2.5-2.5c0-1.4,1.1-2.5,2.5-2.5c1.4,0,2.5,1.1,2.5,2.5
			C253,419.9,251.9,421,250.6,421z"/>
		<path class="st8" d="M235.1,421c-1.4,0-2.5-1.1-2.5-2.5c0-1.4,1.1-2.5,2.5-2.5c1.4,0,2.5,1.1,2.5,2.5
			C237.6,419.9,236.5,421,235.1,421z"/>
	</g>
	<g class="st7">
		<polygon class="st10" points="470.6,188.1 458.7,179.1 470.6,170.2 		"/>
		<polygon class="st11" points="489.7,188.1 477.8,179.1 489.7,170.2 		"/>
		<polygon class="st12" points="508.7,188.1 496.8,179.1 508.7,170.2 		"/>
		<polygon class="st10" points="527.8,188.1 515.9,179.1 527.8,170.2 		"/>
		<polygon class="st11" points="546.8,188.1 534.9,179.1 546.8,170.2 		"/>
	</g>
	<polyline class="st0" points="78.6,515.4 87.6,503.5 96.5,515.4 105.4,503.5 114.4,515.4 123.3,503.5 132.3,515.4 141.2,503.5 
		150.2,515.4 159.1,503.5 168.1,515.4 177,503.5 185.9,515.4 	"/>
	<polyline class="st13" points="448.1,266.9 459.9,275.8 448.1,284.8 459.9,293.7 448.1,302.7 459.9,311.6 448.1,320.6 459.9,329.5 
		448.1,338.5 459.9,347.4 448.1,356.3 459.9,365.3 448.1,374.2 	"/>
	<g class="st7">
		
			<rect x="367.8" y="167.2" transform="matrix(-1 -1.224647e-16 1.224647e-16 -1 741.1518 358.268)" class="st4" width="5.5" height="23.8"/>
		
			<rect x="355.6" y="167.2" transform="matrix(-1 -1.224647e-16 1.224647e-16 -1 716.7456 358.268)" class="st9" width="5.5" height="23.8"/>
		
			<rect x="343.4" y="167.2" transform="matrix(-1 -1.224647e-16 1.224647e-16 -1 692.3395 358.268)" class="st8" width="5.5" height="23.8"/>
		
			<rect x="331.2" y="167.2" transform="matrix(-1 -1.224647e-16 1.224647e-16 -1 667.9334 358.268)" class="st4" width="5.5" height="23.8"/>
		
			<rect x="319" y="167.2" transform="matrix(-1 -1.224647e-16 1.224647e-16 -1 643.5272 358.268)" class="st9" width="5.5" height="23.8"/>
	</g>
	<circle class="st5" cx="243.6" cy="552.4" r="2.1"/>
	<path class="st14" d="M537.3,361.8c0,1.1-0.9,2.1-2.1,2.1c-1.1,0-2.1-0.9-2.1-2.1c0-1.1,0.9-2.1,2.1-2.1
		C536.4,359.7,537.3,360.7,537.3,361.8z"/>
	<path class="st14" d="M329.7,228.3c0,1.8-1.4,3.2-3.2,3.2c-1.8,0-3.2-1.4-3.2-3.2c0-1.8,1.4-3.2,3.2-3.2
		C328.3,225,329.7,226.5,329.7,228.3z"/>
	<circle class="st5" cx="464.9" cy="228.3" r="4.9"/>
</g>
</svg>
