<?xml version="1.0" encoding="utf-8"?>
<!-- Generator: Adobe Illustrator 24.0.1, SVG Export Plug-In . SVG Version: 6.00 Build 0)  -->
<svg version="1.1" id="Layer_1" xmlns="http://www.w3.org/2000/svg" xmlns:xlink="http://www.w3.org/1999/xlink" x="0px" y="0px"
	 viewBox="0 0 1072 800" style="enable-background:new 0 0 1072 800;" xml:space="preserve">
<style type="text/css">
	.st0{clip-path:url(#SVGID_2_);}
	.st1{fill:none;stroke:#6EE7B7;stroke-width:1.6021;stroke-linecap:round;stroke-linejoin:round;stroke-miterlimit:10;}
	.st2{fill:none;stroke:#73E8B9;stroke-width:1.6021;stroke-linecap:round;stroke-linejoin:round;stroke-miterlimit:10;}
	.st3{fill:none;stroke:#77E9BB;stroke-width:1.6021;stroke-linecap:round;stroke-linejoin:round;stroke-miterlimit:10;}
	.st4{fill:none;stroke:#7CEABE;stroke-width:1.6021;stroke-linecap:round;stroke-linejoin:round;stroke-miterlimit:10;}
	.st5{fill:none;stroke:#81EBC0;stroke-width:1.6021;stroke-linecap:round;stroke-linejoin:round;stroke-miterlimit:10;}
	.st6{fill:none;stroke:#86ECC2;stroke-width:1.6021;stroke-linecap:round;stroke-linejoin:round;stroke-miterlimit:10;}
	.st7{fill:none;stroke:#8AECC4;stroke-width:1.6021;stroke-linecap:round;stroke-linejoin:round;stroke-miterlimit:10;}
	.st8{fill:none;stroke:#8FEDC6;stroke-width:1.6021;stroke-linecap:round;stroke-linejoin:round;stroke-miterlimit:10;}
	.st9{fill:none;stroke:#94EEC9;stroke-width:1.6021;stroke-linecap:round;stroke-linejoin:round;stroke-miterlimit:10;}
	.st10{fill:none;stroke:#98EFCB;stroke-width:1.6021;stroke-linecap:round;stroke-linejoin:round;stroke-miterlimit:10;}
	.st11{fill:none;stroke:#9DF0CD;stroke-width:1.6021;stroke-linecap:round;stroke-linejoin:round;stroke-miterlimit:10;}
	.st12{fill:none;stroke:#A2F1CF;stroke-width:1.6021;stroke-linecap:round;stroke-linejoin:round;stroke-miterlimit:10;}
	.st13{fill:none;stroke:#A7F2D1;stroke-width:1.6021;stroke-linecap:round;stroke-linejoin:round;stroke-miterlimit:10;}
	.st14{fill:none;stroke:#ABF3D3;stroke-width:1.6021;stroke-linecap:round;stroke-linejoin:round;stroke-miterlimit:10;}
	.st15{fill:none;stroke:#B0F4D6;stroke-width:1.6021;stroke-linecap:round;stroke-linejoin:round;stroke-miterlimit:10;}
	.st16{fill:none;stroke:#B5F5D8;stroke-width:1.6021;stroke-linecap:round;stroke-linejoin:round;stroke-miterlimit:10;}
	.st17{fill:none;stroke:#B9F5DA;stroke-width:1.6021;stroke-linecap:round;stroke-linejoin:round;stroke-miterlimit:10;}
	.st18{fill:none;stroke:#BEF6DC;stroke-width:1.6021;stroke-linecap:round;stroke-linejoin:round;stroke-miterlimit:10;}
	.st19{fill:none;stroke:#C3F7DE;stroke-width:1.6021;stroke-linecap:round;stroke-linejoin:round;stroke-miterlimit:10;}
	.st20{fill:none;stroke:#C8F8E1;stroke-width:1.6021;stroke-linecap:round;stroke-linejoin:round;stroke-miterlimit:10;}
	.st21{fill:none;stroke:#CCF9E3;stroke-width:1.6021;stroke-linecap:round;stroke-linejoin:round;stroke-miterlimit:10;}
	.st22{fill:none;stroke:#D1FAE5;stroke-width:1.6021;stroke-linecap:round;stroke-linejoin:round;stroke-miterlimit:10;}
	.st23{fill:none;stroke:#6EE7B7;stroke-width:2.0027;stroke-linecap:round;stroke-linejoin:round;stroke-miterlimit:10;}
	.st24{fill:none;stroke:#73E8B9;stroke-width:1.9455;stroke-miterlimit:10;}
	.st25{fill:none;stroke:#77E9BB;stroke-width:1.8883;stroke-miterlimit:10;}
	.st26{fill:none;stroke:#7CEABE;stroke-width:1.831;stroke-miterlimit:10;}
	.st27{fill:none;stroke:#81EBC0;stroke-width:1.7738;stroke-miterlimit:10;}
	.st28{fill:none;stroke:#86ECC2;stroke-width:1.7166;stroke-miterlimit:10;}
	.st29{fill:none;stroke:#8AECC4;stroke-width:1.6594;stroke-miterlimit:10;}
	.st30{fill:none;stroke:#8FEDC6;stroke-width:1.6022;stroke-miterlimit:10;}
	.st31{fill:none;stroke:#94EEC9;stroke-width:1.5449;stroke-miterlimit:10;}
	.st32{fill:none;stroke:#98EFCB;stroke-width:1.4877;stroke-miterlimit:10;}
	.st33{fill:none;stroke:#9DF0CD;stroke-width:1.4305;stroke-miterlimit:10;}
	.st34{fill:none;stroke:#A2F1CF;stroke-width:1.3733;stroke-miterlimit:10;}
	.st35{fill:none;stroke:#A7F2D1;stroke-width:1.3161;stroke-miterlimit:10;}
	.st36{fill:none;stroke:#ABF3D3;stroke-width:1.2589;stroke-miterlimit:10;}
	.st37{fill:none;stroke:#B0F4D6;stroke-width:1.2016;stroke-miterlimit:10;}
	.st38{fill:none;stroke:#B5F5D8;stroke-width:1.1444;stroke-miterlimit:10;}
	.st39{fill:none;stroke:#B9F5DA;stroke-width:1.0872;stroke-miterlimit:10;}
	.st40{fill:none;stroke:#BEF6DC;stroke-width:1.03;stroke-miterlimit:10;}
	.st41{fill:none;stroke:#C3F7DE;stroke-width:0.9728;stroke-miterlimit:10;}
	.st42{fill:none;stroke:#C8F8E1;stroke-width:0.9155;stroke-miterlimit:10;}
	.st43{fill:none;stroke:#CCF9E3;stroke-width:0.8583;stroke-miterlimit:10;}
	.st44{fill:none;stroke:#D1FAE5;stroke-width:0.8011;stroke-miterlimit:10;}
</style>
<g>
	<g>
		<defs>
			<rect id="SVGID_1_" width="1072" height="800"/>
		</defs>
		<clipPath id="SVGID_2_">
			<use xlink:href="#SVGID_1_"  style="overflow:visible;"/>
		</clipPath>
		<g class="st0">
			<g>
				<g>
					<path class="st1" d="M15.9,809.2c24.9-34.4,51.8-67.4,80.6-98.6c12.8-13.9,26.4-27.7,43.3-35.9c43.4-21.1,95.3-0.6,136.2,25
						c37.7,23.6,72.5,51.7,103.5,83.6c30.8,31.5,58.3,67.2,95.6,90.7s88.4,32.2,124.4,6.8c21.4-15.1,34.3-40.2,39.2-65.9
						c4.9-25.8,2.5-52.3-1.7-78.2c-4.8-29.6-11.8-60.5-2.4-89c9.7-29.5,37.7-52.1,68.6-55.4c44-4.6,82.6,26,119.6,50.1
						c47.1,30.6,101.7,53.4,157.8,50.2c56.1-3.2,112.7-37.5,129.5-91.1"/>
					<path class="st2" d="M21.7,820.7c24.4-33.8,51-66.2,79.5-96.7c12.7-13.6,26.1-27,42.7-35.1c33.5-16.3,72.1-8,106.7,8.1
						c9.4,4.4,18.5,9.3,27.2,14.5c37.3,22.3,71.8,49.1,102.6,79.6c30.7,30.2,58.2,64.5,95,87.3c37.1,23,87.4,32,123.3,8.3
						c3.8-2.5,7.3-5.3,10.6-8.3c15.3-14.2,25.1-33.9,29.8-54c5.7-24.6,4.5-50.1,1.4-75.4c-3.6-28.9-9.6-59.3-0.2-87.5
						c9.7-29.2,36.7-51.9,66.5-56.2c42.4-6,79.7,21.5,115.7,42.9c45.9,27.2,99.3,47.1,154.7,43.1c23.9-2.1,48.3-8.7,69.5-20.5
						c29.9-16.5,53.3-43.1,61.9-75.5"/>
					<path class="st3" d="M27.5,832.2c24-33.3,50.2-65,78.4-94.7c12.5-13.2,25.8-26.3,42.1-34.3c32.9-16.1,70.8-8.6,104.8,6.5
						c9.3,4.1,18.3,8.7,26.8,13.6c36.8,21,71,46.4,101.8,75.7c30.5,28.8,58.1,61.8,94.3,83.9c37,22.4,86.3,31.8,122.2,9.8
						c3.8-2.3,7.3-4.9,10.6-7.8c15.4-13.3,25.6-31.8,31-51.1c6.6-23.4,6.5-48,4.4-72.6c-2.4-28.1-7.4-58,2.1-86
						c9.8-28.9,35.7-51.7,64.3-57c40.7-7.4,76.8,16.9,111.8,35.7c44.7,23.7,96.9,40.9,151.6,36c24.6-3,49.8-9.5,71.7-21.7
						c30.8-17.2,54.3-45.6,61.6-79.2"/>
					<path class="st4" d="M33.3,843.7c23.5-32.7,49.4-63.8,77.3-92.8c12.4-12.9,25.5-25.6,41.6-33.4c32.3-15.8,69.4-9.1,102.9,4.9
						c9.1,3.8,18,8.1,26.4,12.7c36.4,19.7,70.3,43.8,100.9,71.7c30.4,27.5,57.9,59.1,93.7,80.6c36.8,21.9,85.3,31.6,121.1,11.3
						c3.8-2.1,7.3-4.5,10.6-7.2c15.4-12.4,26.1-29.8,32.1-48.1c7.4-22.3,8.5-45.8,7.5-69.8c-1.2-27.4-5.2-56.8,4.3-84.5
						c9.8-28.6,34.8-51.5,62.2-57.8c39.1-8.8,73.9,12.4,108,28.5c43.5,20.3,94.5,34.6,148.5,28.9c25.2-3.8,51.4-10.2,74-22.9
						c31.7-17.9,55.2-48.2,61.3-82.8"/>
					<path class="st5" d="M39.1,855.2c23.1-32.2,48.6-62.6,76.2-90.8c12.2-12.6,25.2-24.9,41-32.6c31.7-15.5,68-9.6,101,3.3
						c9,3.5,17.7,7.5,26.1,11.8c35.9,18.4,69.5,41.2,100,67.7c30.3,26.2,57.8,56.4,93.1,77.2c36.7,21.3,84.3,31.4,120,12.7
						c3.7-2,7.3-4.2,10.6-6.6c15.5-11.4,26.6-27.8,33.3-45.1c8.2-21.1,10.4-43.6,10.6-67c0-26.6-3-55.6,6.6-83
						c9.8-28.2,33.8-51.4,60.1-58.6c37.4-10.3,71,7.8,104.1,21.3c42.3,16.8,92.1,28.4,145.4,21.8c25.8-4.6,52.9-10.9,76.2-24.1
						c32.6-18.5,56.1-50.7,61-86.5"/>
					<path class="st6" d="M44.9,866.7c22.6-31.6,47.8-61.3,75.1-88.9c12.1-12.2,24.9-24.2,40.4-31.8c31.1-15.2,66.6-10.2,99.1,1.7
						c8.9,3.2,17.5,6.9,25.7,10.9c35.5,17.1,68.8,38.6,99.2,63.7c30.1,24.9,57.7,53.7,92.4,73.8c36.5,20.8,83.3,31.2,119,14.2
						c3.7-1.8,7.3-3.8,10.6-6.1c15.6-10.5,27.1-25.8,34.4-42.1c9.1-19.9,12.4-41.5,13.6-64.2c1.2-25.9-0.8-54.3,8.8-81.5
						c9.8-27.9,32.8-51.2,57.9-59.4c35.8-11.7,68.1,3.3,100.2,14c41.1,13.4,89.7,22.1,142.3,14.7c26.5-5.4,54.5-11.6,78.4-25.3
						c33.5-19.2,57.1-53.3,60.7-90.1"/>
					<path class="st7" d="M50.7,878.2c22.2-31,47-60.1,73.9-86.9c12-11.9,24.7-23.6,39.8-31c30.5-15,65.3-10.7,97.1,0.1
						c8.7,2.9,17.2,6.4,25.4,10c35,15.8,68.1,35.9,98.3,59.8c30,23.5,57.6,51,91.8,70.4c36.4,20.2,82.2,31,117.9,15.7
						c3.7-1.6,7.3-3.5,10.7-5.5c15.7-9.6,27.6-23.8,35.6-39.2c9.9-18.7,14.4-39.3,16.7-61.4c2.5-25.2,1.4-53.1,11-80
						c9.9-27.6,31.8-51,55.8-60.2c34.2-13.1,65.2-1.3,96.3,6.8c39.8,9.9,87.3,15.9,139.2,7.6c27.1-6.2,56-12.3,80.7-26.5
						c34.4-19.9,58-55.8,60.4-93.8"/>
					<path class="st8" d="M56.5,889.7c21.7-30.5,46.2-58.9,72.8-85c11.8-11.6,24.4-22.9,39.2-30.2c29.9-14.7,63.9-11.3,95.2-1.5
						c8.6,2.6,16.9,5.8,25,9.1c34.6,14.5,67.3,33.3,97.4,55.8c29.9,22.2,57.4,48.3,91.2,67.1c36.2,19.7,81.2,30.8,116.8,17.2
						c3.7-1.4,7.3-3.1,10.7-5c15.8-8.7,28.1-21.8,36.7-36.2c10.7-17.5,16.4-37.1,19.8-58.6c3.7-24.4,3.6-51.8,13.3-78.5
						c9.9-27.3,30.8-50.8,53.7-61c32.5-14.5,62.3-5.8,92.5-0.4c38.6,6.5,84.8,9.6,136.1,0.5c27.7-7,57.6-13,82.9-27.8
						c35.3-20.6,58.9-58.4,60.1-97.4"/>
					<path class="st9" d="M62.3,901.2c21.3-29.9,45.4-57.7,71.7-83c11.7-11.3,24.1-22.2,38.7-29.3c29.3-14.4,62.5-11.8,93.3-3.1
						c8.4,2.4,16.7,5.2,24.6,8.2c34.1,13.2,66.6,30.7,96.6,51.8c29.7,20.9,57.3,45.6,90.5,63.7c36.1,19.1,80.2,30.6,115.7,18.7
						c3.7-1.3,7.3-2.7,10.7-4.4c15.9-7.8,28.6-19.8,37.9-33.2c11.6-16.4,18.4-35,22.8-55.8c4.9-23.7,5.8-50.6,15.5-77
						c9.9-27,29.9-50.6,51.6-61.8c30.9-15.9,59.4-10.4,88.6-7.6c37.4,3,82.4,3.4,133-6.6c28.4-7.8,59.2-13.7,85.1-29
						c36.2-21.3,59.9-60.9,59.8-101.1"/>
					<path class="st10" d="M68.1,912.7c20.8-29.4,44.6-56.5,70.6-81.1c11.5-10.9,23.8-21.5,38.1-28.5c28.7-14.2,61.1-12.4,91.4-4.7
						c8.3,2.1,16.4,4.6,24.3,7.3c33.7,11.9,65.8,28.1,95.7,47.8c29.6,19.5,57.2,42.9,89.9,60.3c35.9,18.6,79.2,30.4,114.6,20.2
						c3.7-1.1,7.3-2.4,10.7-3.8c16-6.9,29.1-17.8,39-30.2c12.4-15.2,20.4-32.8,25.9-53c6.1-23,8-49.4,17.8-75.5
						c9.9-26.7,28.9-50.4,49.4-62.6c29.2-17.3,56.5-14.9,84.7-14.8c36.2-0.4,80-2.9,130-13.7c29-8.6,60.7-14.4,87.3-30.2
						c37.1-22,60.8-63.5,59.5-104.7"/>
					<path class="st11" d="M73.9,924.2c20.4-28.8,43.8-55.3,69.5-79.1c11.4-10.6,23.5-20.8,37.5-27.7c28.1-13.9,59.8-12.9,89.4-6.3
						c8.2,1.8,16.2,4,23.9,6.4c33.2,10.6,65.1,25.4,94.9,43.9c29.5,18.2,57.1,40.2,89.3,56.9c35.8,18,78.1,30.2,113.5,21.7
						c3.7-0.9,7.3-2,10.7-3.3c16.1-6,29.6-15.8,40.2-27.3c13.2-14,22.4-30.6,28.9-50.2c7.3-22.2,10.2-48.1,20-74
						c10-26.3,27.9-50.3,47.3-63.4c27.6-18.7,53.6-19.5,80.8-22c35-3.9,77.6-9.1,126.9-20.8c29.6-9.5,62.3-15.2,89.6-31.4
						c38-22.7,61.7-66,59.2-108.4"/>
					<path class="st12" d="M79.8,935.7c19.9-28.2,43-54.1,68.4-77.2c11.3-10.3,23.2-20.1,36.9-26.9c27.5-13.6,58.4-13.5,87.5-7.8
						c8,1.5,15.9,3.4,23.5,5.6c32.8,9.3,64.4,22.8,94,39.9c29.3,16.9,56.9,37.5,88.6,53.6c35.6,17.5,77.1,30,112.4,23.1
						c3.7-0.7,7.3-1.6,10.8-2.7c16.2-5,30.1-13.8,41.3-24.3c14.1-12.8,24.3-28.5,32-47.4c8.5-21.5,12.4-46.9,22.2-72.5
						c10-26,26.9-50.1,45.2-64.2c26-20.1,50.7-24,76.9-29.2c33.8-7.3,75.2-15.4,123.8-27.9c30.3-10.3,63.8-15.9,91.8-32.6
						c38.9-23.4,62.7-68.6,58.9-112"/>
					<path class="st13" d="M85.6,947.2c19.5-27.7,42.2-52.9,67.3-75.2c11.1-9.9,22.9-19.4,36.3-26.1c26.9-13.4,57-14,85.6-9.4
						c7.9,1.2,15.6,2.8,23.2,4.7c32.3,8,63.6,20.2,93.1,35.9c29.2,15.5,56.8,34.7,88,50.2c35.5,17,76.1,29.9,111.3,24.6
						c3.7-0.5,7.3-1.3,10.8-2.1c16.3-4.1,30.6-11.8,42.5-21.3c14.9-11.6,26.3-26.3,35.1-44.6c9.7-20.7,14.6-45.7,24.5-71
						c10-25.7,25.9-49.9,43-65c24.3-21.6,47.8-28.6,73.1-36.4c32.6-10.8,72.8-21.6,120.7-35c30.9-11.1,65.4-16.6,94-33.8
						c39.8-24.1,63.6-71.1,58.5-115.7"/>
					<path class="st14" d="M91.4,958.7c19-27.1,41.4-51.7,66.2-73.3c11-9.6,22.6-18.7,35.8-25.2c26.3-13.1,55.6-14.6,83.7-11
						c7.7,0.9,15.4,2.2,22.8,3.8c31.9,6.7,62.9,17.6,92.3,32c29.1,14.2,56.7,32,87.4,46.8c35.3,16.4,75.1,29.7,110.2,26.1
						c3.7-0.4,7.3-0.9,10.8-1.6c16.4-3.2,31.1-9.8,43.6-18.3c15.7-10.5,28.3-24.1,38.1-41.8c10.9-20,16.8-44.4,26.7-69.4
						c10.1-25.4,24.9-49.7,40.9-65.9c22.7-23,44.9-33.1,69.2-43.7c31.4-14.2,70.4-27.9,117.6-42.1c31.5-11.9,66.9-17.3,96.3-35.1
						c40.8-24.8,64.5-73.7,58.2-119.3"/>
					<path class="st15" d="M97.2,970.2c18.5-26.6,40.6-50.5,65.1-71.3c10.9-9.3,22.3-18,35.2-24.4c25.7-12.8,54.3-15.1,81.7-12.6
						c7.6,0.7,15.1,1.7,22.5,2.9c31.4,5.4,62.2,14.9,91.4,28c28.9,12.9,56.6,29.3,86.7,43.4c35.2,15.9,74,29.5,109.2,27.6
						c3.7-0.2,7.3-0.5,10.8-1c16.5-2.3,31.7-7.8,44.8-15.4c16.6-9.3,30.3-22,41.2-39c12.1-19.3,19-43.2,29-67.9
						c10.1-25.1,24-49.5,38.8-66.7c21-24.4,41.9-37.6,65.3-50.9c30.2-17.7,68-34.1,114.5-49.2c32.2-12.7,68.5-18,98.5-36.3
						c41.7-25.5,65.5-76.2,57.9-123"/>
					<path class="st16" d="M103,981.7c18.1-26,39.8-49.2,64-69.4c10.7-8.9,22-17.3,34.6-23.6c25.1-12.6,52.9-15.7,79.8-14.2
						c7.5,0.4,14.8,1.1,22.1,2c31,4.1,61.4,12.3,90.5,24c28.8,11.6,56.5,26.6,86.1,40c35,15.3,73,29.3,108.1,29.1
						c3.7,0,7.3-0.2,10.8-0.5c16.6-1.4,32.2-5.8,45.9-12.4c17.4-8.1,32.3-19.8,44.3-36.2c13.3-18.5,21.2-41.9,31.2-66.4
						c10.1-24.8,23-49.3,36.6-67.5c19.4-25.8,39-42.2,61.4-58.1c29-21.1,65.6-40.4,111.4-56.3c32.8-13.5,70.1-18.7,100.7-37.5
						c42.6-26.2,66.4-78.8,57.6-126.6"/>
					<path class="st17" d="M108.8,993.2c17.6-25.4,39-48,62.9-67.4c10.6-8.6,21.7-16.6,34-22.8c24.5-12.3,51.5-16.2,77.9-15.8
						c7.3,0.1,14.6,0.5,21.7,1.1c30.5,2.8,60.7,9.7,89.7,20c28.7,10.2,56.3,23.9,85.5,36.7c34.9,14.8,72,29.1,107,30.6
						c3.7,0.2,7.3,0.2,10.9,0.1c16.6-0.5,32.7-3.8,47.1-9.4c18.2-6.9,34.3-17.6,47.3-33.4c14.6-17.8,23.4-40.7,33.4-64.9
						c10.1-24.5,22-49.2,34.5-68.3c17.8-27.2,36.1-46.7,57.6-65.3c27.7-24.6,63.2-46.6,108.3-63.4c33.4-14.3,71.6-19.4,103-38.7
						c43.5-26.8,67.3-81.3,57.3-130.3"/>
					<path class="st18" d="M114.6,1004.7c17.2-24.9,38.2-46.8,61.8-65.5c10.4-8.3,21.5-15.9,33.4-22c23.9-12,50.1-16.7,76-17.4
						c7.2-0.2,14.3-0.1,21.4,0.2c30.1,1.5,59.9,7,88.8,16.1c28.6,8.9,56.2,21.2,84.9,33.3c34.7,14.2,71,28.9,105.9,32.1
						c3.7,0.3,7.3,0.6,10.9,0.7c16.7,0.4,33.2-1.8,48.2-6.5c19.1-5.7,36.3-15.5,50.4-30.6c15.8-17.1,25.6-39.5,35.7-63.4
						c10.2-24.1,21-49,32.4-69.1c16.1-28.6,33.2-51.3,53.7-72.5c26.5-28,60.8-52.9,105.2-70.5c34.1-15.1,73.2-20.1,105.2-39.9
						c44.4-27.5,68.3-83.9,57-133.9"/>
					<path class="st19" d="M120.4,1016.2c16.7-24.3,37.4-45.6,60.6-63.5c10.3-7.9,21.2-15.3,32.8-21.1c23.3-11.7,48.8-17.3,74-19
						c7-0.5,14.1-0.7,21-0.7c29.6,0.2,59.2,4.4,87.9,12.1c28.4,7.6,56.1,18.5,84.2,29.9c34.6,13.7,69.9,28.7,104.8,33.5
						c3.7,0.5,7.3,0.9,10.9,1.2c16.8,1.4,33.7,0.2,49.4-3.5c19.9-4.6,38.3-13.3,53.5-27.8c17-16.3,27.8-38.2,37.9-61.9
						c10.2-23.8,20-48.8,30.2-69.9c14.5-30,30.3-55.8,49.8-79.7c25.3-31.5,58.4-59.2,102.1-77.5c34.7-16,74.7-20.9,107.4-41.1
						c45.3-28.2,69.2-86.4,56.7-137.6"/>
					<path class="st20" d="M126.2,1027.7c16.3-23.8,36.6-44.4,59.5-61.6c10.2-7.6,20.9-14.6,32.3-20.3
						c22.7-11.5,47.4-17.8,72.1-20.6c6.9-0.8,13.8-1.3,20.7-1.6c29.2-1.2,58.5,1.8,87.1,8.1c28.3,6.2,56,15.8,83.6,26.5
						c34.4,13.1,68.9,28.5,103.7,35c3.6,0.7,7.3,1.3,10.9,1.8c16.9,2.3,34.2,2.2,50.5-0.5c20.7-3.4,40.2-11.1,56.5-25
						c18.2-15.6,30-37,40.2-60.4c10.2-23.5,19.1-48.6,28.1-70.7c12.8-31.5,27.4-60.4,45.9-86.9c24.1-34.9,55.9-65.4,99-84.6
						c35.3-16.8,76.3-21.6,109.6-42.4c46.2-28.9,70.1-89,56.4-141.2"/>
					<path class="st21" d="M132,1039.2c15.8-23.2,35.8-43.2,58.4-59.6c10-7.3,20.6-13.9,31.7-19.5c22.1-11.2,46-18.4,70.2-22.2
						c6.8-1.1,13.5-1.9,20.3-2.5c28.7-2.5,57.7-0.8,86.2,4.1c28.2,4.9,55.8,13.1,83,23.2c34.3,12.6,67.9,28.3,102.6,36.5
						c3.6,0.9,7.3,1.6,11,2.3c17,3.2,34.7,4.3,51.7,2.5c21.6-2.2,42.2-9,59.6-22.2c19.4-14.8,32.2-35.8,42.4-58.9
						c10.3-23.2,18.1-48.4,26-71.5c11.2-32.9,24.5-64.9,42.1-94.1c22.9-38.3,53.5-71.7,95.9-91.7c36-17.6,77.8-22.3,111.9-43.6
						c47.1-29.6,71.1-91.5,56.1-144.9"/>
					<path class="st22" d="M137.8,1050.7c35.7-52.6,94.4-87.4,156.7-100.1c62.3-12.7,127.7-4.5,187.6,16.6
						c37.7,13.3,73.7,31.5,112.5,40.9c38.8,9.3,82.5,8.6,115.5-14c41.2-28.2,55-81.6,68.5-129.7c22.1-79.2,57.5-163.3,131-200.2
						c36.6-18.4,79.4-23,114.1-44.8c48-30.3,72-94.1,55.8-148.5"/>
				</g>
			</g>
			<g>
				<g>
					<path class="st23" d="M489.7,1199.4c-46.6-28.8-48.8-99.5-21.5-147s75-78.9,117.3-113.8c42.3-34.8,83-79.6,86.5-134.3
						c4.5-69.9-53.4-133.4-46-203.1c5.8-54.3,50.1-95.4,96.8-118.3c26.4-13,56.8-17.5,84.1-28.2c123.7-48.6,233.8,29.9,310.9-34
						c83.5-69.1,79.2-146.4,63.8-184.5c-19.8-48.8-85.9-156.9-216.3-127.1c-52.9,12.1-107.3,22.4-161.5,19
						c-81.1-5-160.1-68.9-165.2-150c-3.5-55.6,25.3-113.4,5.2-165.4c-13.5-34.9-47.7-59.1-84.1-67.7c-36.5-8.6-74.9-3.4-110.9,6.8"
						/>
					<path class="st24" d="M493.3,1199.2c-46.5-31.4-50.6-103.3-23.3-152.9c26.9-48.2,74.8-80.6,118.1-114.7
						c42.6-33.8,83.9-76.2,89.5-128.9c7.2-67.4-45.6-130.4-37.9-199.8c6.3-55.1,47.2-97.9,92.7-123.1c25.9-14.9,56.7-21.2,84.9-33
						c119.9-47.8,227.1,25.7,302.7-36.7c81.2-67.1,78.8-142.3,64.4-180.7C1165.9,181,1101.9,76,976.1,103
						c-52,10.2-105.9,19.3-159.5,15.7c-79-5.1-156.1-66.1-162.5-144.3c-5.1-54.1,21.4-111.1,1.7-162.6
						c-13.4-35.2-46.2-60.4-81.6-70.5c-35.7-10.7-74-7.9-110.5,0.4"/>
					<path class="st25" d="M497,1199c-46.4-34-52.4-107.1-25.2-158.7c26.5-49,74.6-82.3,118.9-115.5c42.9-32.8,84.8-72.7,92.6-123.6
						c9.9-65-37.8-127.4-29.7-196.4c6.8-55.9,44.4-100.4,88.6-127.8c25.3-16.8,56.7-24.9,85.6-37.7
						c116.2-47.1,220.5,21.5,294.5-39.4c79-65,78.4-138.3,65.1-177c-17.3-48.3-79.3-150.3-200.5-126
						c-51.1,8.3-104.4,16.3-157.6,12.4C752.4,104.1,677.2,46,669.6-29.3c-6.6-52.6,17.5-108.9-1.8-159.9
						c-13.3-35.6-44.7-61.6-79.1-73.3c-34.9-12.7-73.1-12.3-110.1-6"/>
					<path class="st26" d="M500.6,1198.8c-46.3-36.6-54.3-110.9-27-164.6c26-49.7,74.4-84,119.7-116.4
						c43.3-31.7,85.7-69.3,95.6-118.2c12.6-62.5-30-124.5-21.6-193.1c7.4-56.7,41.5-102.9,84.4-132.6c24.8-18.7,56.6-28.6,86.4-42.5
						c112.4-46.3,213.8,17.4,286.3-42.1c76.7-63,78-134.2,65.7-173.2c-16-48-75.9-147-192.5-125.4c-50.2,6.4-103,13.2-155.6,9.1
						C767.3,94.7,694,39.4,685-33.1c-8.2-51,13.6-106.6-5.2-157.1c-13.2-35.9-43.2-62.9-76.6-76.1c-34-14.8-72.1-16.8-109.6-12.4"/>
					<path class="st27" d="M504.3,1198.6c-46.3-39.2-56.1-114.7-28.9-170.4c25.6-50.4,74.3-85.7,120.6-117.3
						c43.6-30.7,86.6-65.8,98.7-112.9c15.3-60.1-22.2-121.5-13.4-189.7c7.9-57.5,38.7-105.4,80.3-137.3
						c24.3-20.6,56.6-32.3,87.1-47.2c108.6-45.6,207.2,13.2,278.1-44.7c74.5-61,77.6-130.2,66.4-169.4
						c-14.8-47.8-72.6-143.7-184.6-124.9c-49.2,4.5-101.5,10.1-153.6,5.8c-72.7-5.4-144.2-57.8-154.4-127.3
						c-9.8-49.5,9.7-104.3-8.7-154.4c-13.1-36.2-41.7-64.1-74-78.8c-33.2-16.8-71.2-21.3-109.2-18.8"/>
					<path class="st28" d="M507.9,1198.4c-46.2-41.8-57.9-118.5-30.7-176.3c25.2-51.2,74.1-87.4,121.4-118.1
						c43.9-29.7,87.5-62.4,101.7-107.5c18-57.6-14.4-118.5-5.3-186.4c8.4-58.3,35.8-107.9,76.2-142.1c23.8-22.5,56.5-36,87.9-52
						c104.8-44.8,200.5,9,269.9-47.4c72.2-58.9,77.2-126.1,67-165.7c-13.5-47.5-69.3-140.4-176.7-124.3c-48.3,2.6-100.1,7-151.6,2.5
						C797,75.7,727.5,26.2,716-40.5c-11.3-48,5.8-102-12.2-151.6c-13-36.5-40.2-65.4-71.5-81.6c-32.4-18.9-70.3-25.8-108.8-25.2"/>
					<path class="st29" d="M511.5,1198.3c-46.1-44.4-59.7-122.3-32.6-182.2c24.8-51.9,73.9-89.1,122.2-119
						c44.2-28.7,88.4-58.9,104.8-102.2c20.6-55.2-6.6-115.5,2.9-183c8.9-59.1,32.9-110.4,72.1-146.8c23.2-24.4,56.5-39.7,88.7-56.7
						c101.1-44.1,193.9,4.8,261.7-50.1c70-56.9,76.8-122.1,67.7-161.9c-12.3-47.3-66-137.1-168.8-123.8c-47.4,0.6-98.6,4-149.7-0.7
						c-68.6-5.5-136.2-52.2-148.9-116c-12.9-46.5,2-99.8-15.7-148.9c-12.9-36.9-38.7-66.6-69-84.4c-31.6-21-69.4-30.2-108.4-31.6"/>
					<path class="st30" d="M515.2,1198.1c-46-47-61.5-126.1-34.4-188c24.4-52.6,73.7-90.8,123-119.9c44.5-27.7,89.3-55.5,107.8-96.8
						c23.3-52.7,1.2-112.5,11-179.7c9.5-59.9,30.1-112.9,68-151.6c22.7-26.3,56.4-43.4,89.4-61.5c97.3-43.3,187.2,0.7,253.5-52.8
						c67.7-54.9,76.4-118,68.3-158.1c-11-47-62.7-133.8-160.8-123.2c-46.5-1.3-97.2,0.9-147.7-4C826.7,56.8,761,13,747-47.9
						c-14.5-44.9-1.9-97.5-19.2-146.1c-12.8-37.2-37.2-67.9-66.5-87.2c-30.8-23-68.5-34.7-107.9-38"/>
					<path class="st31" d="M518.8,1197.9c-45.9-49.6-63.4-129.9-36.3-193.9c23.9-53.4,73.5-92.5,123.8-120.7
						c44.9-26.6,90.2-52.1,110.8-91.5c26-50.2,9-109.6,19.1-176.3c10-60.7,27.2-115.4,63.8-156.4c22.2-28.2,56.4-47.1,90.2-66.2
						c93.5-42.5,180.5-3.5,245.3-55.5c65.5-52.8,76-113.9,69-154.4c-9.7-46.7-59.3-130.5-152.9-122.7c-45.6-3.2-95.8-2.2-145.7-7.3
						C841.6,47.3,777.7,6.4,762.4-51.7c-16-43.4-5.8-95.2-22.6-143.4c-12.7-37.5-35.7-69.2-64-90c-29.9-25.1-67.5-39.2-107.5-44.4"
						/>
					<path class="st32" d="M522.4,1197.7c-45.8-52.2-65.2-133.7-38.1-199.8c23.5-54.1,73.3-94.2,124.6-121.6
						c45.2-25.6,91.1-48.6,113.9-86.1c28.7-47.8,16.8-106.6,27.3-173c10.5-61.5,24.3-117.9,59.7-161.1c21.6-30.1,56.3-50.8,91-71
						c89.8-41.8,173.9-7.7,237.1-58.2c63.2-50.8,75.6-109.9,69.6-150.6c-8.5-46.5-56-127.2-145-122.1c-44.7-5.1-94.3-5.2-143.8-10.6
						c-62.3-5.8-124.3-43.8-140.8-99c-17.6-41.9-9.7-93-26.1-140.6c-12.6-37.9-34.2-70.4-61.5-92.8c-29.1-27.2-66.6-43.6-107.1-50.8
						"/>
					<path class="st33" d="M526.1,1197.5c-45.7-54.8-67-137.5-40-205.6c23.1-54.8,73.1-95.9,125.4-122.5
						c45.5-24.6,92-45.2,116.9-80.8c31.4-45.3,24.6-103.6,35.4-169.6c11-62.3,21.5-120.4,55.6-165.9c21.1-32,56.3-54.5,91.7-75.7
						c86-41,167.2-11.9,228.9-60.9c61-48.8,75.2-105.8,70.3-146.8c-7.2-46.2-52.7-123.9-137.1-121.6c-43.8-7-92.9-8.3-141.8-13.9
						c-60.2-5.9-120.3-41-138.1-93.3c-19.2-40.4-13.6-90.7-29.6-137.9c-12.5-38.2-32.7-71.7-59-95.6
						c-28.3-29.2-65.7-48.1-106.7-57.2"/>
					<path class="st34" d="M529.7,1197.3c-45.7-57.5-68.8-141.2-41.8-211.5c22.7-55.6,73-97.6,126.3-123.3
						c45.8-23.6,92.8-41.7,120-75.4c34.1-42.9,32.4-100.6,43.6-166.3c11.6-63.2,18.6-122.9,51.5-170.6c20.6-34,56.2-58.3,92.5-80.5
						c82.2-40.3,160.6-16,220.6-63.5c58.7-46.7,74.7-101.8,70.9-143.1c-6-46-49.4-120.5-129.1-121c-42.8-8.9-91.4-11.4-139.8-17.2
						c-58.1-6-116.3-38.3-135.4-87.7c-20.7-38.8-17.5-88.4-33.1-135.1c-12.4-38.5-31.2-72.9-56.4-98.3
						c-27.5-31.3-64.8-52.6-106.2-63.6"/>
					<path class="st35" d="M533.4,1197.1c-45.6-60.1-70.6-145-43.7-217.3c22.3-56.3,72.8-99.3,127.1-124.2
						c46.1-22.6,93.7-38.3,123-70.1c36.8-40.4,40.2-97.6,51.7-162.9c12.1-64,15.8-125.4,47.4-175.4c20.1-35.9,56.2-62,93.2-85.2
						c78.4-39.5,153.9-20.2,212.4-66.2c56.5-44.7,74.3-97.7,71.6-139.3c-4.7-45.7-46.1-117.2-121.2-120.5
						c-41.9-10.8-90-14.5-137.8-20.5c-56-6.1-112.3-35.5-132.7-82c-22.3-37.3-21.4-86.1-36.6-132.4c-12.3-38.8-29.7-74.2-53.9-101.1
						c-26.7-33.3-63.9-57.1-105.8-70"/>
					<path class="st36" d="M537,1196.9c-45.5-62.7-72.4-148.8-45.5-223.2c21.9-57,72.6-101,127.9-125.1
						c46.4-21.6,94.6-34.8,126.1-64.7c39.5-38,48-94.6,59.9-159.6c12.6-64.8,12.9-127.9,43.3-180.1c19.5-37.8,56.1-65.7,94-90
						c74.7-38.8,147.3-24.4,204.2-68.9c54.2-42.7,73.9-93.7,72.2-135.5c-3.5-45.5-42.8-113.9-113.3-119.9
						c-41-12.7-88.5-17.5-135.9-23.8c-53.9-6.2-108.3-32.7-130-76.3c-23.9-35.8-25.3-83.9-40.1-129.6
						c-12.2-39.2-28.2-75.4-51.4-103.9c-25.9-35.4-63-61.5-105.4-76.4"/>
					<path class="st37" d="M540.6,1196.7c-45.4-65.3-74.3-152.6-47.4-229.1C514.7,909.9,565.7,865,622,841.7
						c46.8-20.5,95.5-31.4,129.1-59.4c42.2-35.5,55.8-91.7,68-156.2c13.1-65.6,10-130.4,39.1-184.9c19-39.7,56.1-69.4,94.8-94.7
						c70.9-38,140.6-28.6,196-71.6c52-40.6,73.5-89.6,72.9-131.8c-2.2-45.2-39.4-110.6-105.4-119.4c-40.1-14.6-87.1-20.6-133.9-27.1
						C930.8-9.6,878.2-33.2,855.3-74c-25.4-34.3-29.2-81.6-43.5-126.9c-12.1-39.5-26.7-76.7-48.9-106.7c-25-37.5-62-66-105-82.8"/>
					<path class="st38" d="M544.3,1196.5c-45.3-67.9-76.1-156.4-49.2-234.9c21-58.5,72.2-104.4,129.5-126.8
						c47.1-19.5,96.4-28,132.1-54c44.9-33,63.6-88.7,76.1-152.9c13.7-66.4,7.2-132.9,35-189.7c18.5-41.6,56-73.1,95.5-99.5
						c67.1-37.2,133.9-32.7,187.8-74.3c49.7-38.6,73.1-85.5,73.5-128c-0.9-44.9-36.1-107.3-97.4-118.8
						C1088.1,1.1,1041.6-6,995.4-12.7C945.6-19,895-39.8,870.8-77.7c-27-32.7-33.1-79.3-47-124.1c-12-39.8-25.2-78-46.4-109.5
						c-24.2-39.5-61.1-70.5-104.5-89.2"/>
					<path class="st39" d="M547.9,1196.4c-45.2-70.5-77.9-160.2-51.1-240.8c20.6-59.2,72-106.1,130.3-127.7
						c47.4-18.5,97.3-24.5,135.2-48.7c47.5-30.6,71.4-85.7,84.3-149.5c14.2-67.2,4.3-135.4,30.9-194.4c17.9-43.5,56-76.8,96.3-104.2
						c63.4-36.5,127.3-36.9,179.6-77c47.5-36.6,72.7-81.5,74.2-124.2c0.3-44.7-32.8-104-89.5-118.3c-38.3-18.5-84.2-26.7-130-33.6
						c-47.7-6.4-96.4-24.3-121.8-59.3c-28.6-31.2-36.9-77.1-50.5-121.4c-11.9-40.2-23.7-79.2-43.9-112.3
						c-23.4-41.6-60.2-74.9-104.1-95.6"/>
					<path class="st40" d="M551.5,1196.2c-45.1-73.1-79.7-164-52.9-246.7c20.2-60,71.8-107.8,131.1-128.5
						c47.7-17.5,98.2-21.1,138.2-43.3c50.2-28.1,79.2-82.7,92.4-146.2c14.7-68,1.4-137.9,26.8-199.2c17.4-45.4,55.9-80.5,97.1-109
						c59.6-35.7,120.6-41.1,171.4-79.7c45.2-34.5,72.3-77.4,74.8-120.5c1.6-44.4-29.5-100.7-81.6-117.7
						c-37.4-20.4-82.8-29.8-128-36.9C975.4-38,928.5-53,901.8-85.1c-30.1-29.7-40.8-74.8-54-118.6c-11.8-40.5-22.2-80.5-41.4-115.1
						c-22.6-43.7-59.3-79.4-103.7-102"/>
					<path class="st41" d="M555.2,1196c-45.1-75.7-81.5-167.8-54.8-252.5c19.8-60.7,71.7-109.5,132-129.4
						c48-16.5,99.1-17.6,141.3-38c52.9-25.7,87-79.7,100.6-142.8c15.2-68.8-1.4-140.4,22.7-203.9c16.9-47.3,55.9-84.2,97.8-113.7
						c55.8-35,114-45.3,163.2-82.3c43-32.5,71.9-73.4,75.5-116.7c2.8-44.2-26.2-97.4-73.7-117.2c-36.4-22.3-81.3-32.9-126-40.2
						c-43.5-6.6-88.4-18.8-116.4-48c-31.7-28.2-44.7-72.5-57.5-115.9c-11.7-40.8-20.7-81.7-38.8-117.8
						c-21.8-45.7-58.4-83.9-103.3-108.4"/>
					<path class="st42" d="M558.8,1195.8c-45-78.3-83.4-171.6-56.6-258.4C521.6,876,573.7,826.2,635,807.1
						c48.4-15.4,100-14.2,144.3-32.6c55.6-23.2,94.8-76.8,108.7-139.5c15.8-69.6-4.3-142.9,18.5-208.7
						c16.4-49.2,55.8-87.9,98.6-118.5c52-34.2,107.3-49.4,155-85c40.7-30.5,71.5-69.3,76.1-112.9c4.1-43.9-22.8-94.1-65.7-116.6
						c-35.5-24.2-79.9-36-124-43.5c-41.4-6.7-84.5-16-113.7-42.3c-33.3-26.6-48.6-70.2-60.9-113.1c-11.6-41.1-19.2-83-36.3-120.6
						c-20.9-47.8-57.4-88.4-102.8-114.8"/>
					<path class="st43" d="M562.5,1195.6c-44.9-80.9-85.2-175.4-58.5-264.2c18.9-62.2,71.3-112.9,133.6-131.1
						c48.7-14.4,100.9-10.7,147.4-27.3c58.3-20.8,102.6-73.8,116.9-136.1c16.3-70.4-7.1-145.4,14.4-213.4
						c15.8-51.1,55.8-91.6,99.3-123.2c48.3-33.5,100.7-53.6,146.8-87.7c38.5-28.4,71.1-65.3,76.8-109.2
						c5.3-43.7-19.5-90.8-57.8-116.1c-34.6-26.1-78.4-39-122.1-46.8c-39.3-6.8-80.5-13.2-111-36.7c-34.8-25.1-52.5-68-64.4-110.4
						c-11.5-41.5-17.7-84.2-33.8-123.4c-20.1-49.8-56.5-92.8-102.4-121.2"/>
					<path class="st44" d="M566.1,1195.4c-44.8-83.5-87-179.2-60.3-270.1c18.5-62.9,71.1-114.6,134.4-132
						c49-13.4,101.8-7.3,150.4-21.9c61-18.3,110.4-70.8,125-132.8c16.8-71.2-10-147.9,10.3-218.2c15.3-53,55.7-95.3,100.1-128
						c44.5-32.7,94-57.8,138.6-90.4c36.2-26.4,70.7-61.2,77.4-105.4c6.6-43.4-16.2-87.5-49.9-115.5c-33.7-28-77-42.1-120.1-50.1
						c-37.2-6.9-76.5-10.4-108.3-31c-36.4-23.6-56.4-65.7-67.9-107.6c-11.4-41.8-16.2-85.5-31.3-126.2
						c-19.3-51.9-55.6-97.3-102-127.6"/>
				</g>
			</g>
		</g>
	</g>
</g>
</svg>
